<mxfile host="65bd71144e">
    <diagram id="S6hmVWGI0V9djqRu8k6H" name="Page-1">
        <mxGraphModel dx="1453" dy="511" grid="0" gridSize="10" guides="1" tooltips="1" connect="1" arrows="1" fold="1" page="0" pageScale="1" pageWidth="850" pageHeight="1100" math="0" shadow="0">
            <root>
                <mxCell id="0"/>
                <mxCell id="1" parent="0"/>
                <mxCell id="2" value="AWS Cloud (Server)" style="swimlane;whiteSpace=wrap;html=1;fillColor=#0050ef;fontColor=#ffffff;strokeColor=#001DBC;collapsible=0;fontSize=14;" parent="1" vertex="1">
                    <mxGeometry x="79" y="254.5" width="776" height="557.5" as="geometry"/>
                </mxCell>
                <mxCell id="4" value="" style="shape=image;verticalLabelPosition=bottom;labelBackgroundColor=default;verticalAlign=top;aspect=fixed;imageAspect=0;image=https://uploads-ssl.webflow.com/604e9f1b3b8992ec0978e67f/63178de0492be32979c9acf7_aws-logo.png;fontSize=14;" parent="2" vertex="1">
                    <mxGeometry x="6" y="30" width="104" height="78" as="geometry"/>
                </mxCell>
                <mxCell id="43" value="Django&lt;br style=&quot;font-size: 14px;&quot;&gt;Model View Template (MVT) Architecture" style="swimlane;whiteSpace=wrap;html=1;startSize=37;fillColor=#60a917;fontColor=#ffffff;strokeColor=#2D7600;collapsible=0;fontSize=14;" parent="2" vertex="1">
                    <mxGeometry x="128" y="42.5" width="288" height="441.5" as="geometry"/>
                </mxCell>
                <mxCell id="53" style="edgeStyle=orthogonalEdgeStyle;html=1;exitX=0;exitY=0.25;exitDx=0;exitDy=0;entryX=0;entryY=0.75;entryDx=0;entryDy=0;startArrow=none;startFill=0;endArrow=classic;endFill=1;fontSize=14;" parent="43" source="28" target="29" edge="1">
                    <mxGeometry relative="1" as="geometry">
                        <Array as="points">
                            <mxPoint x="51" y="165"/>
                            <mxPoint x="51" y="92"/>
                        </Array>
                    </mxGeometry>
                </mxCell>
                <mxCell id="57" value="Update" style="edgeLabel;html=1;align=center;verticalAlign=middle;resizable=0;points=[];fontSize=14;" parent="53" vertex="1" connectable="0">
                    <mxGeometry x="-0.1448" y="-2" relative="1" as="geometry">
                        <mxPoint x="-26" y="-12" as="offset"/>
                    </mxGeometry>
                </mxCell>
                <mxCell id="56" style="edgeStyle=orthogonalEdgeStyle;html=1;exitX=1;exitY=0.75;exitDx=0;exitDy=0;entryX=1;entryY=0.25;entryDx=0;entryDy=0;startArrow=none;startFill=0;endArrow=classic;endFill=1;fontSize=14;" parent="43" source="28" target="30" edge="1">
                    <mxGeometry relative="1" as="geometry">
                        <Array as="points">
                            <mxPoint x="207" y="195"/>
                            <mxPoint x="207" y="267"/>
                        </Array>
                    </mxGeometry>
                </mxCell>
                <mxCell id="60" value="Update" style="edgeLabel;html=1;align=center;verticalAlign=middle;resizable=0;points=[];fontSize=14;" parent="56" vertex="1" connectable="0">
                    <mxGeometry x="-0.3509" y="-1" relative="1" as="geometry">
                        <mxPoint x="27" y="21" as="offset"/>
                    </mxGeometry>
                </mxCell>
                <mxCell id="28" value="View Logic" style="rounded=0;whiteSpace=wrap;html=1;fontSize=14;" parent="43" vertex="1">
                    <mxGeometry x="68.5" y="150" width="120" height="60" as="geometry"/>
                </mxCell>
                <mxCell id="54" style="edgeStyle=orthogonalEdgeStyle;html=1;exitX=1;exitY=0.75;exitDx=0;exitDy=0;entryX=1;entryY=0.25;entryDx=0;entryDy=0;startArrow=none;startFill=0;endArrow=classic;endFill=1;fontSize=14;" parent="43" source="29" target="28" edge="1">
                    <mxGeometry relative="1" as="geometry">
                        <Array as="points">
                            <mxPoint x="208" y="92"/>
                            <mxPoint x="208" y="165"/>
                        </Array>
                    </mxGeometry>
                </mxCell>
                <mxCell id="59" value="Notify" style="edgeLabel;html=1;align=center;verticalAlign=middle;resizable=0;points=[];fontSize=14;" parent="54" vertex="1" connectable="0">
                    <mxGeometry x="0.1893" y="1" relative="1" as="geometry">
                        <mxPoint x="22" y="-12" as="offset"/>
                    </mxGeometry>
                </mxCell>
                <mxCell id="29" value="Model" style="rounded=0;whiteSpace=wrap;html=1;fontSize=14;" parent="43" vertex="1">
                    <mxGeometry x="68.5" y="47" width="120" height="60" as="geometry"/>
                </mxCell>
                <mxCell id="52" style="edgeStyle=orthogonalEdgeStyle;html=1;exitX=0;exitY=0.25;exitDx=0;exitDy=0;entryX=0;entryY=0.75;entryDx=0;entryDy=0;startArrow=none;startFill=0;endArrow=classic;endFill=1;fontSize=14;" parent="43" source="30" target="28" edge="1">
                    <mxGeometry relative="1" as="geometry">
                        <Array as="points">
                            <mxPoint x="50" y="267"/>
                            <mxPoint x="50" y="195"/>
                        </Array>
                    </mxGeometry>
                </mxCell>
                <mxCell id="58" value="Action" style="edgeLabel;html=1;align=center;verticalAlign=middle;resizable=0;points=[];fontSize=14;" parent="52" vertex="1" connectable="0">
                    <mxGeometry x="0.2388" y="-1" relative="1" as="geometry">
                        <mxPoint x="-25" y="13" as="offset"/>
                    </mxGeometry>
                </mxCell>
                <mxCell id="30" value="Template" style="rounded=0;whiteSpace=wrap;html=1;fontSize=14;" parent="43" vertex="1">
                    <mxGeometry x="68.5" y="252" width="120" height="60" as="geometry"/>
                </mxCell>
                <mxCell id="51" value="" style="shape=image;verticalLabelPosition=bottom;labelBackgroundColor=default;verticalAlign=top;aspect=fixed;imageAspect=0;image=https://www.shuup.com/wp-content/uploads/2017/12/python-plus-django-1.jpg;fontSize=14;" parent="43" vertex="1">
                    <mxGeometry x="136" y="341" width="145.66" height="86" as="geometry"/>
                </mxCell>
                <mxCell id="46" value="PostgreSQL (Database)" style="shape=image;verticalLabelPosition=bottom;labelBackgroundColor=default;verticalAlign=top;aspect=fixed;imageAspect=0;image=https://www.todopostgresql.com/wp-content/uploads/2018/07/curso1-2.png;fontSize=14;" parent="2" vertex="1">
                    <mxGeometry x="459" y="74.25" width="90.5" height="90.5" as="geometry"/>
                </mxCell>
                <mxCell id="48" style="edgeStyle=none;html=1;exitX=1;exitY=0.5;exitDx=0;exitDy=0;startArrow=classic;startFill=1;endArrow=classic;endFill=1;fontSize=14;" parent="2" source="29" target="46" edge="1">
                    <mxGeometry relative="1" as="geometry"/>
                </mxCell>
                <mxCell id="64" value="Update/Retrieve" style="edgeLabel;html=1;align=center;verticalAlign=middle;resizable=0;points=[];fontSize=14;" parent="48" vertex="1" connectable="0">
                    <mxGeometry x="-0.2332" y="2" relative="1" as="geometry">
                        <mxPoint x="16" y="-12" as="offset"/>
                    </mxGeometry>
                </mxCell>
                <mxCell id="63" style="edgeStyle=orthogonalEdgeStyle;html=1;exitX=1;exitY=0.5;exitDx=0;exitDy=0;startArrow=none;startFill=0;endArrow=classic;endFill=1;entryX=1;entryY=0.5;entryDx=0;entryDy=0;fontSize=14;" parent="2" source="62" target="46" edge="1">
                    <mxGeometry relative="1" as="geometry">
                        <mxPoint x="503" y="196.5" as="targetPoint"/>
                        <Array as="points">
                            <mxPoint x="597" y="308"/>
                            <mxPoint x="597" y="120"/>
                        </Array>
                    </mxGeometry>
                </mxCell>
                <mxCell id="65" value="Polls" style="edgeLabel;html=1;align=center;verticalAlign=middle;resizable=0;points=[];fontSize=14;" parent="63" vertex="1" connectable="0">
                    <mxGeometry x="0.2282" relative="1" as="geometry">
                        <mxPoint y="23" as="offset"/>
                    </mxGeometry>
                </mxCell>
                <mxCell id="62" value="Notification Manager" style="rounded=0;whiteSpace=wrap;html=1;fontSize=14;" parent="2" vertex="1">
                    <mxGeometry x="444.25" y="277.5" width="120" height="60" as="geometry"/>
                </mxCell>
                <mxCell id="69" value="" style="shape=image;verticalLabelPosition=bottom;labelBackgroundColor=default;verticalAlign=top;aspect=fixed;imageAspect=0;image=https://upload.wikimedia.org/wikipedia/commons/thumb/c/c3/Python-logo-notext.svg/1200px-Python-logo-notext.svg.png;fontSize=14;" parent="2" vertex="1">
                    <mxGeometry x="539" y="254.5" width="35" height="38.32" as="geometry"/>
                </mxCell>
                <mxCell id="78" style="edgeStyle=orthogonalEdgeStyle;html=1;exitX=0.5;exitY=0;exitDx=0;exitDy=0;entryX=1;entryY=0.25;entryDx=0;entryDy=0;fontSize=14;" parent="2" source="74" target="46" edge="1">
                    <mxGeometry relative="1" as="geometry"/>
                </mxCell>
                <mxCell id="79" value="Stores" style="edgeLabel;html=1;align=center;verticalAlign=middle;resizable=0;points=[];fontSize=14;" parent="78" vertex="1" connectable="0">
                    <mxGeometry x="-0.1483" y="-5" relative="1" as="geometry">
                        <mxPoint x="-5" y="27" as="offset"/>
                    </mxGeometry>
                </mxCell>
                <mxCell id="74" value="Web Parser and Façade" style="rounded=0;whiteSpace=wrap;html=1;fontSize=14;" parent="2" vertex="1">
                    <mxGeometry x="624" y="277.5" width="120" height="60" as="geometry"/>
                </mxCell>
                <mxCell id="75" value="" style="shape=image;verticalLabelPosition=bottom;labelBackgroundColor=default;verticalAlign=top;aspect=fixed;imageAspect=0;image=https://upload.wikimedia.org/wikipedia/commons/thumb/c/c3/Python-logo-notext.svg/1200px-Python-logo-notext.svg.png;fontSize=14;" parent="2" vertex="1">
                    <mxGeometry x="719" y="259.59000000000003" width="35" height="38.32" as="geometry"/>
                </mxCell>
                <mxCell id="7" value="Source Control + CI/CD (Pipeline)" style="swimlane;whiteSpace=wrap;html=1;fillColor=#6a00ff;fontColor=#ffffff;strokeColor=#3700CC;collapsible=0;fontSize=14;" parent="1" vertex="1">
                    <mxGeometry x="995" y="418.75" width="414" height="229" as="geometry"/>
                </mxCell>
                <mxCell id="10" value="GitHub Code Repository" style="shape=image;verticalLabelPosition=bottom;labelBackgroundColor=default;verticalAlign=top;aspect=fixed;imageAspect=0;image=https://thurrott.s3.amazonaws.com/wp-content/uploads/sites/2/2023/01/GitHub.jpeg;fontSize=14;" parent="7" vertex="1">
                    <mxGeometry x="206" y="60" width="188.12" height="106" as="geometry"/>
                </mxCell>
                <mxCell id="26" style="edgeStyle=none;html=1;startArrow=classic;startFill=1;endArrow=none;endFill=0;fontSize=14;" parent="7" source="24" target="10" edge="1">
                    <mxGeometry relative="1" as="geometry"/>
                </mxCell>
                <mxCell id="27" value="Triggers" style="edgeLabel;html=1;align=center;verticalAlign=middle;resizable=0;points=[];fontSize=14;" parent="26" vertex="1" connectable="0">
                    <mxGeometry x="0.4763" relative="1" as="geometry">
                        <mxPoint x="-18" y="12" as="offset"/>
                    </mxGeometry>
                </mxCell>
                <mxCell id="24" value="GitHub Actions" style="shape=image;verticalLabelPosition=bottom;labelBackgroundColor=default;verticalAlign=top;aspect=fixed;imageAspect=0;image=https://raw.githubusercontent.com/github/explore/2c7e603b797535e5ad8b4beb575ab3b7354666e1/topics/actions/actions.png;fontSize=14;" parent="7" vertex="1">
                    <mxGeometry x="33" y="70" width="89" height="89" as="geometry"/>
                </mxCell>
                <mxCell id="9" value="Developers" style="shape=umlActor;verticalLabelPosition=bottom;verticalAlign=top;html=1;outlineConnect=0;fontSize=14;" parent="1" vertex="1">
                    <mxGeometry x="1497" y="435.75" width="62" height="109" as="geometry"/>
                </mxCell>
                <mxCell id="12" style="edgeStyle=none;html=1;startArrow=classic;startFill=1;endArrow=none;endFill=0;fontSize=14;" parent="1" source="10" target="9" edge="1">
                    <mxGeometry relative="1" as="geometry"/>
                </mxCell>
                <mxCell id="13" value="Update" style="edgeLabel;html=1;align=center;verticalAlign=middle;resizable=0;points=[];fontSize=14;" parent="12" vertex="1" connectable="0">
                    <mxGeometry x="0.4402" y="3" relative="1" as="geometry">
                        <mxPoint x="-19" y="-9" as="offset"/>
                    </mxGeometry>
                </mxCell>
                <mxCell id="31" value="Client (Web Browser)" style="verticalLabelPosition=bottom;html=1;verticalAlign=top;align=center;strokeColor=none;fillColor=#00BEF2;shape=mxgraph.azure.laptop;pointerEvents=1;fontSize=14;" parent="1" vertex="1">
                    <mxGeometry x="255" y="936" width="154" height="120" as="geometry"/>
                </mxCell>
                <mxCell id="33" style="edgeStyle=none;html=1;startArrow=none;startFill=0;endArrow=classic;endFill=1;fontSize=14;" parent="1" source="32" target="31" edge="1">
                    <mxGeometry relative="1" as="geometry"/>
                </mxCell>
                <mxCell id="80" value="Uses" style="edgeLabel;html=1;align=center;verticalAlign=middle;resizable=0;points=[];fontSize=14;" parent="33" vertex="1" connectable="0">
                    <mxGeometry x="-0.3316" y="-4" relative="1" as="geometry">
                        <mxPoint x="23" y="-14" as="offset"/>
                    </mxGeometry>
                </mxCell>
                <mxCell id="32" value="User" style="shape=umlActor;verticalLabelPosition=bottom;verticalAlign=top;html=1;outlineConnect=0;fontSize=14;" parent="1" vertex="1">
                    <mxGeometry x="-9" y="939" width="62" height="109" as="geometry"/>
                </mxCell>
                <mxCell id="37" style="edgeStyle=none;html=1;exitX=0;exitY=0.5;exitDx=0;exitDy=0;startArrow=none;startFill=0;endArrow=classic;endFill=1;fontSize=14;" parent="1" source="24" target="2" edge="1">
                    <mxGeometry relative="1" as="geometry"/>
                </mxCell>
                <mxCell id="38" value="Deploys" style="edgeLabel;html=1;align=center;verticalAlign=middle;resizable=0;points=[];fontSize=14;" parent="37" vertex="1" connectable="0">
                    <mxGeometry x="-0.3181" y="2" relative="1" as="geometry">
                        <mxPoint x="-34" y="-17" as="offset"/>
                    </mxGeometry>
                </mxCell>
                <mxCell id="40" style="edgeStyle=none;html=1;exitX=0.5;exitY=1;exitDx=0;exitDy=0;startArrow=classic;startFill=1;endArrow=classic;endFill=1;fontSize=14;" parent="1" source="30" target="31" edge="1">
                    <mxGeometry relative="1" as="geometry"/>
                </mxCell>
                <mxCell id="70" style="edgeStyle=orthogonalEdgeStyle;html=1;exitX=0.5;exitY=1;exitDx=0;exitDy=0;fontSize=14;" parent="1" source="66" target="32" edge="1">
                    <mxGeometry relative="1" as="geometry">
                        <mxPoint x="85" y="1200" as="targetPoint"/>
                        <Array as="points">
                            <mxPoint x="583" y="1148"/>
                            <mxPoint x="48" y="1148"/>
                        </Array>
                    </mxGeometry>
                </mxCell>
                <mxCell id="71" value="Notifies" style="edgeLabel;html=1;align=center;verticalAlign=middle;resizable=0;points=[];fontSize=14;" parent="70" vertex="1" connectable="0">
                    <mxGeometry x="0.4183" y="1" relative="1" as="geometry">
                        <mxPoint x="104" y="13" as="offset"/>
                    </mxGeometry>
                </mxCell>
                <mxCell id="66" value="Email Provider" style="shape=image;verticalLabelPosition=bottom;labelBackgroundColor=default;verticalAlign=top;aspect=fixed;imageAspect=0;image=https://www.duocircle.com/wp-content/uploads/2021/05/mailgun-logo.png;fontSize=14;" parent="1" vertex="1">
                    <mxGeometry x="504.2" y="853" width="158.09" height="76" as="geometry"/>
                </mxCell>
                <mxCell id="67" style="edgeStyle=orthogonalEdgeStyle;html=1;exitX=0.5;exitY=1;exitDx=0;exitDy=0;startArrow=none;startFill=0;endArrow=classic;endFill=1;fontSize=14;" parent="1" source="62" target="66" edge="1">
                    <mxGeometry relative="1" as="geometry"/>
                </mxCell>
                <mxCell id="68" value="Send" style="edgeLabel;html=1;align=center;verticalAlign=middle;resizable=0;points=[];fontSize=14;" parent="67" vertex="1" connectable="0">
                    <mxGeometry x="-0.3094" y="-3" relative="1" as="geometry">
                        <mxPoint x="3" y="20" as="offset"/>
                    </mxGeometry>
                </mxCell>
                <mxCell id="72" value="Target Website" style="shape=image;verticalLabelPosition=bottom;labelBackgroundColor=default;verticalAlign=top;aspect=fixed;imageAspect=0;image=data:image/png,iVBORw0KGgoAAAANSUhEUgAAAOUAAAAoCAYAAAABvz18AAAAAXNSR0IArs4c6QAAAARnQU1BAACxjwv8YQUAAAAJcEhZcwAADsMAAA7DAcdvqGQAACMfSURBVHhe7V1pdF3Vdd56mmzJkmzZliV5HsHzgA2EGcKwGpMGQpuWtAklTVe7Wrq6mqn9kSYQ8iMJWclKV9dqaNNCQwk0aSAJkFAMNJgmGBvb2PKE8SQPkq3Blm0N1vCe+n17n33f1bUmG0Ow48/cd849Z599pr3PPtMVOb2AXMRFXMT7BqngXsRFXMT7BDGlzIj0pvGIdGXgDzBDyji+8AGNA+9K6a7CfNlfPEwHN7wZQpghCh0YIY8sZT9pydOfgIsTgd882AfeD5mYbDne7T4632TgtOkrX3NycszFv0wOwhCei4fqSJeKkEZcbm+OpHN6EZZlkYGeq6Z7ENKb4iCUYTlUTuN4RmZa0/bgJw+P8WMZe1FW4+OdzbcevOWpj6GopNbptwF9+i/mvhfoL6+hwt7L8p0viJRSFU4Fn2+GSKDxb1/bCWlPd0lvRskj5KRyZHpRmYzMy8cbuGgDm5qkoUlUXFPEoKzKNSW/rNsnbT1dcmP1TCnKM1UfEvGswdY4AQjn4JFiSC+UFf9ycmj18yw8Ua8LFUkB9/f3k+DHy/JulKu/Or+f6j8cREqpAu7C68IPP8N/sX+nPLJzPV7zQoXTkkrlQUHhV3XOyLTSMbJy0hy5oXoa3hAfbKorDOEK9OiujfL8vt2SSWVkasloeWjFrUMqjSkgfwm3gVk1J05XPlpWpvIB4bcDoUulublZOjo6tM8mTZr0GxNOzzee/3PPPafuypUr1T0XePjhh+WKK66QJUuWhJBs3ucT+kxfKdw+1cuKvMjHXvqhpDIQbtUFkMM6WmXhxzuNYS/CUrBS80aXy+eXXicj+e6KSQSFYbpPvfJTWEnkAOXOyU3J1y+/RaYWlyjZwA2Ykeb2ffLUhr/UtzQsoVr2XuSBJAV5RVI9eqnMr/qIVJcu0jC3/mn4h2mLLwjs3r1bXn31VTlx4kQklIWFhTJ37lxZsWKFjBw5MlCeO3g+joaGBqmrq+ujIHE89dRT6t55552D9PmZ4Tvf+Y5ceeWVqphxJMv2fkdkQEwJM6HwXPWZDXRL1w3KNBbpVCIYOCgvIxGdk4L850sqjQAo5bZjLfLQxtVBIW1zR7mDB/21bSeltacT78iDD5ivazqg+Q7ecCnp6GlFcTIyu/JmuXzKJ+WyyZ+Qy6Z+QpZN+bjMqbhZmlrfkp/VfEF+uftboId9RGdQNVV5f0uwY8cOtUKdnZ2qEB/+8Ifl1ltvlfHjx8vGjRvlpz/9qXR1dSkthTXuvhOw7+J8Xn75ZVm9erUOEI5kPkP3+ZlhIF7nMo/3ApFS6tQPr95wXAtqVfBDC5gLi5ibQny6R+aOHS/zx1bAKo6TBeUVaO1uEIFQN2JEtrUc1TUjmKmiazZgyzyogJgEw8B2o7HMfq1tOKRUpsCDCwnt76yKW2XZ5Ltl6RQq5B/JZVDQD0z/c/nY8v+US6Gwb9e/IBtq/xP8ocLM4/zqk7MC2+zgwYPywgsvqALee++9ct1118mMGTPk0ksvlY9+9KNy2223qQV79tlnNY0L67kQWubvfOifPn26lqOiAvIRwuLx9NM914jncb4iUkoKLpWCleIazJTRoljBNKejIMjAun156fXyJUxR7192k/zDsuvlkQ/epWtDI+5WmucO7sSLKZ0qG/nj2dp8BCs9TnXzQEtl7Zbaky3S2Q3FHgwoi5WHlo/pfH1L2wlA+dgdN8z6nEwbf7XU1P9EutIdIY2r+4ULtsXatWvVf/vtt0tBQYH646BycnpXUlISCe25Fl7yY1kuv/xyufvuuzUvIq4s3m/vBpzvu5nHu42sUgL+EgVaO2oFU+F8MpWTr8qlgEvakak8+crSGyH7aAQqLxZxB46fkLZeWE4oEGmoFh2ZHljRJiSDskJbUr0IpYUFxeaWxoiO01qdNsMfKZTmyWk1Gpth8bKpT4cSTUfr2Ymp7uGWmkBnFA7jaFad9H1cItQ1yj/EhZIE+Fv2/FVDlJZHMgYKhodbGH7dH4UBms6n+wDfNczK6fTZFHQDvYaLHDhwQNeNgykdleWWW26JlKQ/4T0bYY7zi7tJXh7eHwYq89lisLzOFlH/BPj7+uMNcv/6l+Wft62TjmBgsvWwviKiMDrqTXJMSusgYAV1oweggnJqyAzIklPUkfn5mNJWIg/QYRHHNei+48d0k4WZ02JtaW7Q9FxPUoFJQx58NjQeUpd0XKVG8EoMCTLT7GVs0QxV3ab2t0OcN4oJsVpPHpdw1Qx6jQnlpB+VUz+r2xuOdBgTqm+gtTZqDffHaO2MlDy4COD6nPwtDL+gYRk0jANA8DMHpQF4/ks6nrdaDPygUS6IsvwDPeg4dU1heVFaWsqQSCDjghkJRIC/J4XX3weiHwpxuiTvJPqjpTucvEgz3DI54vRnk54bodr+AHua7c8LEf+08dey9Viz/G/9XvnxoZ3Kl/WIJCTkk/H2gEO56A/ap8MGLSGzwVSRwspMjYGtHHlUYpYPE9eMWRudwIYCUPEIbYhULgSyV/IzmHaCz5ZjDdYpKtThrBHxuibsv+ynA2m10RRM59Wjy4ZxoTdl1M0oFsWtpoM8tBzgR8IEtDPxT9WUtH3Kx7DgxRqbykUeqlQahl9VTCsV25J+lps0PNsl9EJGKK/lE8qu2ZmSK/DO+IkTJ+orN3jicKFzIYkj/u50jji91je8J+kIj3d/Mh9Hf2mTtE4zUF5EnCae3v2DpUvSx98HR0ZWNx2Sx2u3yepmk2PvU0pPO+TdNj8hTd1dypd9ycG3t7NNelpbMAELfaN0LlsqFX2g/Tw8gBQKZ8Lgo3YQNPwyc924geLmMxBKZ6AQWgNQ8cjHCowwTF97qBdorIaOdjmCwocUWmDe1jlTkDfT65CAQcKE3MuZlvrjW2TD/sflFzV/J+v3f18OntwMOlg2kkFhtEHA47U935WdDS/yDWBotqmYx9GOvfLSjgfxYkpFMA99wvtre/5NDjW/bi+AccAv4nc2vCBrdv+L/M/2+2XDgcektbMR5eAcIYyuQXFZ/P3N/yfrD3wfdE/IutpHZOPBJ+XN2u/LPoQzL/JlmcrLy2XPnj1M3Udw424S3K3lLqnHJ9Nxp/bnP/+5tLa26jvDnYYun7feektef93q6fHcUCLfODZt2qR0fE6ePKlHNlwHe9ibb77Zh7+XgbSM464y6Q4dMqVIgukYt27dOqVbs2aN8mdZCOdHeNndPxT2of5rmuqk7lS7uvtaedzEZZ1IATrgr+avkOmlo+XKcZPkw5PnIkVGN0t7u9qk+3CtZI4eke6DuzHYYmnjxYBrM6G+MDk5A6jwIpluq0BwdNTGe5QRCNI5YAvl5G0fBRwqXGOHj+JU4l5UotyUE43FdeYbR6yxzUJa4UxZNHgImNrxl+k4JHDmaVcArZq/3P1teabmM7oJ1J3KyJa6n8izNZ+1IxTPI9SvEUq3+eAzGkSuxt3ATtx5eJXsa1oth09ssjiks5yMsivdBv5PZ6fQVDLEMfy/N94nr+z8luw7+mvpTp+UtRgcnlz3SdnZ+IKm19KiPGwbtu+W+qcxkPxA1tf+u7x58AfyBhRzPRR51favyg/X/UlUNm7iUNBXrVo1oAA6/J30FHg/JokrBV1Oi3ft2iXbtm3TMCLOm/7169frmaSnYxgHB/KNw5WPT0tLi+b92muv9Qkn4vw5aDz66KPR8Qppnn76aT3nZJmT9aJSOk8qJBXzySefVHoqN8E0zMPzied3Joinu27CJPna5TfLZxZdKWNHjEAm6EUM8umuU4HC0IuZjOkQX4K89K2C5N4PBP+A+NHebVYATl/h/P6M+caIloWjO8I6etLyrzvWKQ2qDEOZkntnLZZ8uCR+pa5WNnFNqTY+R6aVlsmKCRN1nZkiA4QXwrpeVTlF8yKZcopV/GTnYViYVTJnwq1SMmJCCHWQzuxMc/te2V73nCyceIeMLpqqZV2z92HZUf+MfGDmX8rNc++XSytulsUT/0BG5JfIpgNPSnd3h0wqX25sQN92qlHebn5RFk28S3JT+QimYCOa01HQrKt9VFq7WqQ4f6xeWtBS4od0LMWhYxtkZ/NLsnTKJ6Ws0MuaI09v+oy0ddbJhxZ8Va6c/mdal0UTf0/ae47KOijnuOKZKHN1RM+22XnkRa3vH6x4TJbzfJbHQJPvkarRC2TUyAlSWXKJ0tJSUtC3b9+u7syZM40L2zPWji6U7id9ZWWljB49OqJ1mpqaGrU09HMTKYnu7m69qMCd3cmTJ0fpqBx84gf5y5cv140mDh719fW6/uXRDWn4MD4OKuHzzz+v9bjjjjv0iGfp0qV6+WHr1q1SVFQkVVVVgRp9DAUk77vuukv5eV5lZWU6qOzcuVPmzZsneXl5fdpgOBhdkC/pNAfnXplfUi6LeRSob/iFEbI5jt0F1w1MjYHpysuVzIlj8AP5hZI3ZrzG8HxftyvwTxEripmQYaAnrRNCPYhnllkTnJG2TI88sP5lVcicXNuYmDKqRDd/mAXN/PZjTUrLxiDd5RUTZV5ZBQReuehxy9qmg+rXkd8LHPIbGsabzcTpaUE+Omz0Ek1/oqterdZlU/5EFlbdqZaY5SL/hVUfgaDfA+v5IznRWa98iGoIPG8LNbXy8BuF1MGH5enVo5bmk5yKYDrcts0a0ae+ahExYh/fgLbKtdtF4JnJSaslPNb2ltwy90tSWboYaTh3T0lBbrHcMOszyHOJrNnzPYTZcVFoGuRjPvu1S4xs/+qyJbKg8o4oT4I7q1QeKhotJsF20XYPiAsjr98RjY2NGu50TsMdXYbt379f3z2eLmkYTwx0jc/pHR7vtMn4OKjs5MureL6jzKMeKuZ9990X3RZyHtzoin+F4nlxwODNIVpKXqAgkuUcGim5tmKy/PG0+XJdxRSVEvY4Zcgvp7CPbWYHRdSH3kIpmHKJ5FdOlYLq6ZqG4K/3J2UnjmxvDoECZMBd1TTmwF+BAj644RV58I1X5YENr8qnX35KdnE0wHSVN3RYYd6D9cbi+1asJ6MOAB0Vcj5GjeJcO0/ryUXBIIxbjzVqxbSYbDcX9qEA3rRiq3d9G9PKX8mC6jsg7HadrPboGnUXwHKSs3aINh4eCLSF50Z0bEwqDZVuf5OFEbZbmyuHWrbo+9hRc6TuWI3GaClZbrJGWepPbJWqsoVhqgIFg4Lubf61pqmEMhk3RIJe64pyLIaCnTx1WJo7sC6MOiqjU233k47F1jZhctTZ89QguEnFZH1dCKM+iIGC72tRpyM4PeT9WV4CYDinsnTJw+l8fUce8bTuj4fF807ySYLWmdaels3RH3/C/VTIeLjnR5eXGKicbJOzBXmzJ9jehPZB8NveBRd1FsA4W8rggcz0FhbDh77TOvsgaf2alPC+b4OARxupDMw+sueNnc1Qns0tDbK9uRFLV5hsZOTsFpZNkBuqpoWNmowq2omwI0XrUQxrOn/MWI2bP8ZufPBsMw1BXAdryUoPVjBaHG7ScINkQy1cWMbX9n5Pnnjjk/J2/Yt6DY/TRrUg4NXVfRIlzKhFijhb26lr4ZyKtWsaz7sKylN3chPC7F3VAf7Dx99E3TKYQn4cYRmpO74lSkMl7M60w8K+Dctnd3CtYxCO9WNBbpGmMW5WCBtdMbvJQzngdnafAIVx1M0E6zvA6uN5WXIrrwuju1RMKhOFML62iwutgzu3tJS+rnRQCQlOAwlXwDgPhrm1jSOugI54uv7i4/CyjBo1St3hIFk3f3eX02Uq+pCIFS1ZTra1PxHAnurIMFdYQ6AEC/Yx36iQ9FnfM4677n2RfB8YXE8CrKAefWBU4u4SLRwvo+dAmHl1buGYcvnskmvC3JopUqponKYyHQtNRTShS8klnJuTN3hwc2b70aZYobIWiH77Tanibdj/mKyvfVzWHnxM1sK/s+F/pLx4lty+6Jty/czPBkFHGrjaDkPAJr42Rfe8OD2kcpEP17daFvjroJTVZYuR32ztCm72KJgf6rev+VcaTmtrnRpqxEFCYa7+atmYL7fIOW0lC55zsgw28vv58HDhgsS1FS3EK6+8ohsmjqSg+XGK71I63DJyTcd1mSulg9NBKrOnP59hPR6APvT3xp4uea65Vo9DuEw7bTDhawhinHcV/daDAPj1Zjqlfdd66d6zSY9GKE/KS/WpL8/hd7cfcXD6BEa8B8vD/xxoGTd7uB1837wPyBeXXS9FeVQwzVYLRUVzpabgzh0zLsr4qvGTdFrs2HPyqFZeESssFYKbHpxS/s7ib8ifXrNKPnXNL+Qvrl6F53m554qn5La590tV6Vyz0Dm8VQPRhpcKPxTQNO4BUDoMIJWYflK56o5v1joTXE8ebd0rU8ddJSUjKmTUiHFS17JZ4/SiAVB3gtPbNBR3gaUDa+9kXR9yUFOgnmiPNNcfCOdMgRaYrpWBD3yeeJjwsnL9xTuvVEzeiXXF9HiHTz2TSsd33p0lqqurI8vpcPoLQSl1n4H/qcyp5Gj46qP10tHTKw3pbtkB2fTZn4KkfMXDEO9rvtEiUsb5EK0bXpLu3Zuk/e2N0r3zDQ2jtaTMJI/+PM2woJYEwv7lZTfiuV6+gueBFTfKf1z3Ef386rrqaVowE04qb6+c6kmroklOvk5d+aXJ/PJKMDPBLC8slAmYbwsvG6glgWU9jM7XCvedEmS0wXjpwAquH1B7A7E9GA8BtwbOU1cb1weEQREGHcBHMCoVy1EPpXTw6h4VZ1zRbH2vGr1M6nmdL3QES1PfskGnvlZKhKiSGdowRa4/sV0OntgMZd+mCn8ED6fEx9p264zDwUHNL/mfCeIjLxXTLWZcMZOjMxWLxxoOTh9pBTkFJrizSvjGDhHf5DnfYdNKtEskvyZZI2Fg4oh6h+Qhim0ZhYe+plprG5MOT36nHccQna3HVSH1Ygll3LKOkJWAIaCfbYEBwQ2a+aPHw+KNl3ll5TIyHwLtgocMTDFZoF5Z28DPsqCMvbzdAutTVCzTiktJFNEuCOtKgteQtrc0qiKycciVheTj0ztdv1Kpkac2YGgchzYw02s5EpGDgMki9YFyMO2E8oVQIpueUsG5q2pT0/kI6ZHq0gWqpPzWk2g71SDHO4/o1NfAVLbu4zS0qWOHPFvzt/Ls5i/A/Zw8t/nv5bka+r8ga3Y/rCm4ciesvU8/XB4K3k8Ot5hUMCqmH3E42FdUyrjC1dbWKo0fObg15MYPwTRU4gtBIR0cBFXOtG2sz1aUVkpFbr5MThXIpSXlJh+QDTcURKTQlHnA+1vXjfhP+c5YLvn5+foUTrxEw7kOJb84L4JphwU7uohEVrVcNVynWCZ4Du5EsUDcFqaCEZzu0gq0d3fLAxtfkQfXr5YHN/xSL/HaTR8DJ3L8lEsnv2gcvwhPqB1CBTKqiKyJTaW9MbLTAJYJv3hMQbNWcDAoW/DSPyWiWfTKpFJYwmNbreaIOwTrxl1VrR8URqe4qFfdcawVwKD+xJugy0U4lZZJrGzaVWBSUTxHVi58CGvfb8jtC78hKxd9De9fMz9cvpvCa3fF0g8PA9FTMfn1CMEbL3GwDV3pOEUlD54j0nULySMJbpS4NeUNn+PHj19ASmmyFAHNyPpX5BXKNeMmyhXjq6U4x+406wwmgL3kA7/JH+WcieHFK3WBhiaPf/bmxo/rw6MRnyn6rC+O5PuAsIzNehigDMw5WEgyUgVCNEcAVVqEUeEojKwgiisd3T2ytblBalqa5M2jDfrVSGN7u3EArwx4tKV75EDrSatcvKH6QCemytcas0fzi9qLa0oEa3ndig8DxitrnSqxRiU4vezKnMIUc5dMKJkHQqvzqMIqGTWS68pNCMrBenKznluppURdyI8l9UGLu6/VpYuh7Auw/l2sxyN8qkvxlC0KFpaH2yxHQlCGQLYtsmCYg4rFTZv4h8cOVy6uE8mDroeRBx8qLi0o4etJrjUvCKCZWEeqircZlYwyZJJGEhJZuMpm6NVkm7uFpEJybyUXcqC9z70DGgi1tHSVHOgrnyYpw4DebuelW7rIhLZHM2eR6SADXq/T8xr8xxGA9wN5p5V/i4fQ/U1aIS8ErKfVOjysJAuLNeDWo4cj/jqmkGeYJmh6eM2qgYbBPHAnqNh0eZ+Vr4kGGxY8G0DPFMHi8PGttp4E98nly6zj8B87bFr5tYjnurNXDh/bgnXmQotHXayDbToTDQ6hSDoTgOudTtDHh3W3tNm4odBfXZNh48aNUze500pQCalsvp5060kefLjpwxs8THshrScVaCbWkTM1n45mlcN6yNuSsU7D8KwsZGF9B3q46aZ6STdykyz0ZZAD/YJK/fGUsTdXJj0gD7+aO8CPlqmEkZHkm5JzZAnTWMDcUHBUoAZWUvdhkZAuFY9/OkSvGKGw/GsGnpjHKXaTBQ+EeR0rAVY22rAMSqb5cheWtyfITasXVS6sMQk6oNV45EPx98azJgmIvbOdQ81DGJQJYRPGLNRjkEOYotp6crHGskwcK6swVe3qbpd9R/9PD/9p7awDfR0ecuBUX11zOKhEZQEZy04KpQod5xZW3zkT0bRRqphveOBXJCwTr9SZ4GRBq0eldIVzpXRwKsu0pIlb0iSSfIcDTzPctAPRDZXeFctxOr31APtWZZtBIGnsbDMj08O7q57G147oBdBbX3BHHUmQD+lO/eq/pe1f/kqf9pcfD+IOWcQ/WlBNlShC6HGoGQSChJxiUnj0lIJeMM5Lm0DnB2VSBcHDCmom8DOMSmI5mLl+C9NT2z2k9eqUD02ZKV++7Fq5/7Ib9PnycjxhJ5fHKaTtFftA9C1eywNo/gny41qSmyq6plRV9QowD/hQ7j6NroKdxpRxDLhk9FCf4Lin9eALyHvSbRqfX8Cv5MEXYVHDwD+xZKHusNZjakoFZX1YV9Lw4d1X0q3f/wN1s+tJvLD4nK7A4eUAfnxNGqaM2i/kZqOvdS2HHOtYhCA6NwxWljaLuJXltPR0IWM5smG8ucNpLNeYSQGlkpHW/4JBUumYhvdr+VVIfD2ZzJN8GeYuQTdOR17xz8ySaUaMGKFu8kID4XRJMJxX7egm4WmSfwza+WgokpGOfvYIdYL+5s5T8tbJFtnf1iJ7W5qlO/BnnA3iJosKnbFlp7U9236twURm1xvIwvgrb/SnfiVyWp86EGEFRBCdQMiwbiTVDLTkWvao4hQcdfUXqelhGNw1jbVYT3LU4SozT26omqk7tnx899Z3cvmnKXnljvlkUj2SBv/XG7mpgPJohhRTiiCHDVowNEawJtEaMJQ5Dn7PMmX8ck1Xc+jHCDFLSAXwym85+GPlOW3M1RqmDR3yZD0njuY9VdGLBFTQqI0UGSlIFUt58XQ9v2Q6Wxea4noZWfLpY6+So2179TiEdNqGsTJrV9KaItgHSQ52vOCcjo5GyM9KSdjMwD5y5qdNvC9q4VklYJvSz3ufvNHCK3geF4crGaeuSYVzl9bSd299PUl/Ep6nx9F1P8NnzZqlfOJnn/E0nGZTMfu7Fhfn46DfFdLj43DeyfuxDrY1kUzL8B5dcgG5udKZ6ZF2PUc3K8nrkz2tzdLx75+T7n+8F1NVHufZUKk9NSt7yZ7+uNxRV9SfrYbC4/sCRFZs/MKvfzALAkp1IFNaUVVGZwo6jhV67kIpQ+Vfb6rDNDM/jPIpGZWXL9NGlYYFMuB156v6M3pJXYWQfxkvxZ3bIxpulpk2E+XxBqLVcASWBoi2TgsACjjAzZjF1b+rnz/VHP6Zhllcj9TUPy3rD/xAFlTfKSUjuN7iyhdxVCYOJqhnBaeryIOKW122TJOTzn6NVhUR5eR6MioP3i3eOpF/cY/K+9K2B2Tv0de1Lan4/Jxr1Y4H5bE1H7W6EnBZY7WUmKHwiQshhyjChYhKRIXhlTre4OHaz+NobWj9qLA8FuG1uaTwOVwZ4+vJuKDHp7ROe6YgL95D5dkpB5KkYjp48dw/14qD9Pyca+9eDIIBXk5vo3hbxcFwKmYSNBuhSdljBg3KkTH5I6VYP67AmnxEkZTwD4+TvfYN+uIRKOQz35bO//2+dH3zYxrBD+fJZ8RNn5CRd99vz41/TBaIhnxG1aScBW9AtnShDiZqFsFRmCMFRZxTRiqdVhZMdGSBa/TGhhWwxSvPGqlQBDPtUYVjEres6mds4EHhnQuLydtBfntIbwIhnHSsCDd6eAEBYxcCOCXWmASQPq6wylnksqn3yLRxV8uaXQ/rHdlnt3xenlz3aT0bnDL2SsSzwViS8K0oUyl7q6ErW1XZvNDhFk/ebCeuKwmzkgRjwm+Y0pDuhks+D+Wvkhe3f1HL8bNtfy//8dpd+m3msqmfIDXaBC0eqxr3yWgtTfBQNrSFDn4RLC9+TUFF4cfE3/3ud/UbQj6PPPKIftbEOF4kiAt+HKwXlY7xceWL0/sRCV0XfHf7+0JjIDDNBz/4QT1mYRmfeOKJ6A80E4zn36ilVeeAQiUk3eOPP67fUxJ+sSEOayMbRLxcSQwZHhyTBky1MSBeVlYh14yrlHml44ICIzbMgnqa7YyayNTvDumz09j8GUslb7rtMzBEd16JkN5yyiL6npLKwYFb2xIPp3A00FSiV+v3Smc3I1NSMbJIVk6eowqidWDlNUl2ncW3144clL2Yh9uBfy/Wk7NlGjogB0Kl3aX5YURBeuabwU/lyFL5yT7+FTzy7JF8TBdWTkFeLDQtJRS2pW2PzK64TS+Rp1AehTIkKPh4ZSV0NGK8RebmFMjM8deqcnVhbXkq0yZjR82QK2b8hSyb+HuILwz0BBvJmXLu3yuFeWVSVDBGJo9ZGjqcMSwn/uG9uHCsHOvYL0sm/aEU5hdr/rRubBe2EVuHbnHeGLmkaqWUjqjE+hJr2XS3TBt7tVwz+29kWvlV1gdsRc3eytDadURKCiZgrbrI6ob/wpwkVk8IECwAv6pwheJZIq0kLRIF/Nprr8UMjO3Y/xSP4B1XrhcXLVqktEkwjGvB2bNn6/qSsPboa4FOnTqlSjpnzpwQkoXnX1RUJAsXLtQ82/VYTCJ6xvPhEQ7rw3u25MdvIfnJ1k033aTp42hqapIpU6b0KVccbIt0Ot1vmSjEEX1wEGRe/FAidMIKP41UMBUqz1I5W3rXPiO9Xe2S/9ffk5yp8xEPA0U6xkP5lDX9SGfyzFMF9rSFKeMA6AXFyzONg5aIazeRrS2N8s1Nv9LQzy2+WteAxoOpCKaEH0pD5eYbd6oe2vSqNHS0yoyScvn6FbcojY0dmjFYgJijhaeDgP2odof8167NmCKMlHvmLJHrq6aq0GtF8MsdMR1vYDGZvG+5w5sKKguYjWG9ael1lIPfykl6xgU6Jonax6actEzWWaE9GKX8uUg3Ht5Oyj90gudtgxs7KCeKc39UBuYPf19lMTr+IyfnqPx0tuC02byS6MtvcDjtQG6c5myQTMt34mz4DTdtf3n6ezJuMPTXwtavYdAKMqN0Lj8ug9q3cdmxeOavco33bF8aIqWM4EyjomQZWkXAIhJUIlvkvoW3NyrnNP38JhujcZEi4o2u0hMpacYoy/9hkP+PfyK+WrZYLknlC8pCOqsoV6Esu6WJ/8ZLmw0nEBa1ARRTdz0DbSx/tgXLzQvyNj0NeTKhd4Lzifhl82SYDxJR/qEDfZCwdgGYnkCcikIoh/UDXwLPYcL6UQs0KIZLR8RpzzbdYOiP7kzycTANMVC6fnlqe9PjfUR/6E3E6XIDPWn97foS9ar1jtKZPxvD/E7vw9OV8gwwVAXfDfTbaBdxxoi345m0aZL2Yn+ce5zZEJsAO+O97pBkfhSKizgzJBXJ/cm29Pd4eDyd80mmu4h3hneklO814p3v/gtVKN7NOsUVazB42/ZH7+EDxV/E2eMdKeV7rQwuBO53XIhCEa/ruYTz7I93PM/+2jkOp70Q2/43jTNSymRHvpcdMpiQJMt1vuPdrI+3n7sD9WmynfsrE2kutLZ/P+AdbfS812BRk8JyIWGg+p2reif5XOjteX5C5P8BcDBWXS+UezwAAAAASUVORK5CYII=;imageBackground=#191919;imageBorder=none;fontSize=14;" parent="1" vertex="1">
                    <mxGeometry x="701.0014453125" y="870.9989483642578" width="229" height="40" as="geometry"/>
                </mxCell>
                <mxCell id="76" style="edgeStyle=orthogonalEdgeStyle;html=1;exitX=0.5;exitY=1;exitDx=0;exitDy=0;fontSize=14;" parent="1" source="74" target="72" edge="1">
                    <mxGeometry relative="1" as="geometry"/>
                </mxCell>
                <mxCell id="77" value="Calls" style="edgeLabel;html=1;align=center;verticalAlign=middle;resizable=0;points=[];fontSize=14;" parent="76" vertex="1" connectable="0">
                    <mxGeometry x="-0.3497" y="-1" relative="1" as="geometry">
                        <mxPoint as="offset"/>
                    </mxGeometry>
                </mxCell>
            </root>
        </mxGraphModel>
    </diagram>
    <diagram name="Page-2" id="5aUAMEROpEZ1R3I5-2Ru">
        <mxGraphModel dx="2740" dy="1136" grid="0" gridSize="10" guides="1" tooltips="1" connect="1" arrows="1" fold="1" page="0" pageScale="1" pageWidth="850" pageHeight="1100" math="0" shadow="0">
            <root>
                <mxCell id="b3LFn2ZK_6WmYbGhhiYw-0"/>
                <mxCell id="b3LFn2ZK_6WmYbGhhiYw-1" parent="b3LFn2ZK_6WmYbGhhiYw-0"/>
                <mxCell id="b3LFn2ZK_6WmYbGhhiYw-2" value="AWS Cloud (Server)" style="swimlane;whiteSpace=wrap;html=1;fillColor=#0050ef;fontColor=#ffffff;strokeColor=#001DBC;collapsible=0;fontSize=14;" vertex="1" parent="b3LFn2ZK_6WmYbGhhiYw-1">
                    <mxGeometry x="79" y="254.5" width="776" height="557.5" as="geometry"/>
                </mxCell>
                <mxCell id="b3LFn2ZK_6WmYbGhhiYw-3" value="" style="shape=image;verticalLabelPosition=bottom;labelBackgroundColor=default;verticalAlign=top;aspect=fixed;imageAspect=0;image=https://uploads-ssl.webflow.com/604e9f1b3b8992ec0978e67f/63178de0492be32979c9acf7_aws-logo.png;fontSize=14;" vertex="1" parent="b3LFn2ZK_6WmYbGhhiYw-2">
                    <mxGeometry x="6" y="30" width="104" height="78" as="geometry"/>
                </mxCell>
                <mxCell id="b3LFn2ZK_6WmYbGhhiYw-4" value="Django&lt;br style=&quot;font-size: 14px;&quot;&gt;Model View Template (MVT) Architecture" style="swimlane;whiteSpace=wrap;html=1;startSize=37;fillColor=#60a917;fontColor=#ffffff;strokeColor=#2D7600;collapsible=0;fontSize=14;" vertex="1" parent="b3LFn2ZK_6WmYbGhhiYw-2">
                    <mxGeometry x="128" y="42.5" width="288" height="441.5" as="geometry"/>
                </mxCell>
                <mxCell id="b3LFn2ZK_6WmYbGhhiYw-5" style="edgeStyle=orthogonalEdgeStyle;html=1;exitX=0;exitY=0.25;exitDx=0;exitDy=0;entryX=0;entryY=0.75;entryDx=0;entryDy=0;startArrow=none;startFill=0;endArrow=classic;endFill=1;fontSize=14;" edge="1" parent="b3LFn2ZK_6WmYbGhhiYw-4" source="b3LFn2ZK_6WmYbGhhiYw-9" target="b3LFn2ZK_6WmYbGhhiYw-12">
                    <mxGeometry relative="1" as="geometry">
                        <Array as="points">
                            <mxPoint x="51" y="165"/>
                            <mxPoint x="51" y="92"/>
                        </Array>
                    </mxGeometry>
                </mxCell>
                <mxCell id="b3LFn2ZK_6WmYbGhhiYw-6" value="Update" style="edgeLabel;html=1;align=center;verticalAlign=middle;resizable=0;points=[];fontSize=14;" vertex="1" connectable="0" parent="b3LFn2ZK_6WmYbGhhiYw-5">
                    <mxGeometry x="-0.1448" y="-2" relative="1" as="geometry">
                        <mxPoint x="-26" y="-12" as="offset"/>
                    </mxGeometry>
                </mxCell>
                <mxCell id="b3LFn2ZK_6WmYbGhhiYw-7" style="edgeStyle=orthogonalEdgeStyle;html=1;exitX=1;exitY=0.75;exitDx=0;exitDy=0;entryX=1;entryY=0.25;entryDx=0;entryDy=0;startArrow=none;startFill=0;endArrow=classic;endFill=1;fontSize=14;" edge="1" parent="b3LFn2ZK_6WmYbGhhiYw-4" source="b3LFn2ZK_6WmYbGhhiYw-9" target="b3LFn2ZK_6WmYbGhhiYw-15">
                    <mxGeometry relative="1" as="geometry">
                        <Array as="points">
                            <mxPoint x="207" y="195"/>
                            <mxPoint x="207" y="267"/>
                        </Array>
                    </mxGeometry>
                </mxCell>
                <mxCell id="b3LFn2ZK_6WmYbGhhiYw-8" value="Update" style="edgeLabel;html=1;align=center;verticalAlign=middle;resizable=0;points=[];fontSize=14;" vertex="1" connectable="0" parent="b3LFn2ZK_6WmYbGhhiYw-7">
                    <mxGeometry x="-0.3509" y="-1" relative="1" as="geometry">
                        <mxPoint x="27" y="21" as="offset"/>
                    </mxGeometry>
                </mxCell>
                <mxCell id="b3LFn2ZK_6WmYbGhhiYw-9" value="View Logic" style="rounded=0;whiteSpace=wrap;html=1;fontSize=14;" vertex="1" parent="b3LFn2ZK_6WmYbGhhiYw-4">
                    <mxGeometry x="68.5" y="150" width="120" height="60" as="geometry"/>
                </mxCell>
                <mxCell id="b3LFn2ZK_6WmYbGhhiYw-10" style="edgeStyle=orthogonalEdgeStyle;html=1;exitX=1;exitY=0.75;exitDx=0;exitDy=0;entryX=1;entryY=0.25;entryDx=0;entryDy=0;startArrow=none;startFill=0;endArrow=classic;endFill=1;fontSize=14;" edge="1" parent="b3LFn2ZK_6WmYbGhhiYw-4" source="b3LFn2ZK_6WmYbGhhiYw-12" target="b3LFn2ZK_6WmYbGhhiYw-9">
                    <mxGeometry relative="1" as="geometry">
                        <Array as="points">
                            <mxPoint x="208" y="92"/>
                            <mxPoint x="208" y="165"/>
                        </Array>
                    </mxGeometry>
                </mxCell>
                <mxCell id="b3LFn2ZK_6WmYbGhhiYw-11" value="Notify" style="edgeLabel;html=1;align=center;verticalAlign=middle;resizable=0;points=[];fontSize=14;" vertex="1" connectable="0" parent="b3LFn2ZK_6WmYbGhhiYw-10">
                    <mxGeometry x="0.1893" y="1" relative="1" as="geometry">
                        <mxPoint x="22" y="-12" as="offset"/>
                    </mxGeometry>
                </mxCell>
                <mxCell id="b3LFn2ZK_6WmYbGhhiYw-12" value="Model" style="rounded=0;whiteSpace=wrap;html=1;fontSize=14;" vertex="1" parent="b3LFn2ZK_6WmYbGhhiYw-4">
                    <mxGeometry x="68.5" y="47" width="120" height="60" as="geometry"/>
                </mxCell>
                <mxCell id="b3LFn2ZK_6WmYbGhhiYw-13" style="edgeStyle=orthogonalEdgeStyle;html=1;exitX=0;exitY=0.25;exitDx=0;exitDy=0;entryX=0;entryY=0.75;entryDx=0;entryDy=0;startArrow=none;startFill=0;endArrow=classic;endFill=1;fontSize=14;" edge="1" parent="b3LFn2ZK_6WmYbGhhiYw-4" source="b3LFn2ZK_6WmYbGhhiYw-15" target="b3LFn2ZK_6WmYbGhhiYw-9">
                    <mxGeometry relative="1" as="geometry">
                        <Array as="points">
                            <mxPoint x="50" y="267"/>
                            <mxPoint x="50" y="195"/>
                        </Array>
                    </mxGeometry>
                </mxCell>
                <mxCell id="b3LFn2ZK_6WmYbGhhiYw-14" value="Action" style="edgeLabel;html=1;align=center;verticalAlign=middle;resizable=0;points=[];fontSize=14;" vertex="1" connectable="0" parent="b3LFn2ZK_6WmYbGhhiYw-13">
                    <mxGeometry x="0.2388" y="-1" relative="1" as="geometry">
                        <mxPoint x="-25" y="13" as="offset"/>
                    </mxGeometry>
                </mxCell>
                <mxCell id="b3LFn2ZK_6WmYbGhhiYw-15" value="Template" style="rounded=0;whiteSpace=wrap;html=1;fontSize=14;" vertex="1" parent="b3LFn2ZK_6WmYbGhhiYw-4">
                    <mxGeometry x="68.5" y="252" width="120" height="60" as="geometry"/>
                </mxCell>
                <mxCell id="b3LFn2ZK_6WmYbGhhiYw-16" value="" style="shape=image;verticalLabelPosition=bottom;labelBackgroundColor=default;verticalAlign=top;aspect=fixed;imageAspect=0;image=https://www.shuup.com/wp-content/uploads/2017/12/python-plus-django-1.jpg;fontSize=14;" vertex="1" parent="b3LFn2ZK_6WmYbGhhiYw-4">
                    <mxGeometry x="136" y="341" width="145.66" height="86" as="geometry"/>
                </mxCell>
                <mxCell id="b3LFn2ZK_6WmYbGhhiYw-17" value="PostgreSQL (Database)" style="shape=image;verticalLabelPosition=bottom;labelBackgroundColor=default;verticalAlign=top;aspect=fixed;imageAspect=0;image=https://www.todopostgresql.com/wp-content/uploads/2018/07/curso1-2.png;fontSize=14;" vertex="1" parent="b3LFn2ZK_6WmYbGhhiYw-2">
                    <mxGeometry x="459" y="74.25" width="90.5" height="90.5" as="geometry"/>
                </mxCell>
                <mxCell id="b3LFn2ZK_6WmYbGhhiYw-18" style="edgeStyle=none;html=1;exitX=1;exitY=0.5;exitDx=0;exitDy=0;startArrow=classic;startFill=1;endArrow=classic;endFill=1;fontSize=14;" edge="1" parent="b3LFn2ZK_6WmYbGhhiYw-2" source="b3LFn2ZK_6WmYbGhhiYw-12" target="b3LFn2ZK_6WmYbGhhiYw-17">
                    <mxGeometry relative="1" as="geometry"/>
                </mxCell>
                <mxCell id="b3LFn2ZK_6WmYbGhhiYw-19" value="Update/Retrieve" style="edgeLabel;html=1;align=center;verticalAlign=middle;resizable=0;points=[];fontSize=14;" vertex="1" connectable="0" parent="b3LFn2ZK_6WmYbGhhiYw-18">
                    <mxGeometry x="-0.2332" y="2" relative="1" as="geometry">
                        <mxPoint x="16" y="-12" as="offset"/>
                    </mxGeometry>
                </mxCell>
                <mxCell id="b3LFn2ZK_6WmYbGhhiYw-20" style="edgeStyle=orthogonalEdgeStyle;html=1;exitX=1;exitY=0.5;exitDx=0;exitDy=0;startArrow=none;startFill=0;endArrow=classic;endFill=1;entryX=1;entryY=0.5;entryDx=0;entryDy=0;fontSize=14;" edge="1" parent="b3LFn2ZK_6WmYbGhhiYw-2" source="b3LFn2ZK_6WmYbGhhiYw-22" target="b3LFn2ZK_6WmYbGhhiYw-17">
                    <mxGeometry relative="1" as="geometry">
                        <mxPoint x="503" y="196.5" as="targetPoint"/>
                        <Array as="points">
                            <mxPoint x="597" y="308"/>
                            <mxPoint x="597" y="120"/>
                        </Array>
                    </mxGeometry>
                </mxCell>
                <mxCell id="b3LFn2ZK_6WmYbGhhiYw-21" value="Polls" style="edgeLabel;html=1;align=center;verticalAlign=middle;resizable=0;points=[];fontSize=14;" vertex="1" connectable="0" parent="b3LFn2ZK_6WmYbGhhiYw-20">
                    <mxGeometry x="0.2282" relative="1" as="geometry">
                        <mxPoint y="23" as="offset"/>
                    </mxGeometry>
                </mxCell>
                <mxCell id="b3LFn2ZK_6WmYbGhhiYw-22" value="Notification Manager" style="rounded=0;whiteSpace=wrap;html=1;fontSize=14;" vertex="1" parent="b3LFn2ZK_6WmYbGhhiYw-2">
                    <mxGeometry x="444.25" y="277.5" width="120" height="60" as="geometry"/>
                </mxCell>
                <mxCell id="b3LFn2ZK_6WmYbGhhiYw-23" value="" style="shape=image;verticalLabelPosition=bottom;labelBackgroundColor=default;verticalAlign=top;aspect=fixed;imageAspect=0;image=https://upload.wikimedia.org/wikipedia/commons/thumb/c/c3/Python-logo-notext.svg/1200px-Python-logo-notext.svg.png;fontSize=14;" vertex="1" parent="b3LFn2ZK_6WmYbGhhiYw-2">
                    <mxGeometry x="539" y="254.5" width="35" height="38.32" as="geometry"/>
                </mxCell>
                <mxCell id="b3LFn2ZK_6WmYbGhhiYw-24" style="edgeStyle=orthogonalEdgeStyle;html=1;exitX=0.5;exitY=0;exitDx=0;exitDy=0;entryX=1;entryY=0.25;entryDx=0;entryDy=0;fontSize=14;" edge="1" parent="b3LFn2ZK_6WmYbGhhiYw-2" source="b3LFn2ZK_6WmYbGhhiYw-26" target="b3LFn2ZK_6WmYbGhhiYw-17">
                    <mxGeometry relative="1" as="geometry"/>
                </mxCell>
                <mxCell id="b3LFn2ZK_6WmYbGhhiYw-25" value="Stores" style="edgeLabel;html=1;align=center;verticalAlign=middle;resizable=0;points=[];fontSize=14;" vertex="1" connectable="0" parent="b3LFn2ZK_6WmYbGhhiYw-24">
                    <mxGeometry x="-0.1483" y="-5" relative="1" as="geometry">
                        <mxPoint x="-5" y="27" as="offset"/>
                    </mxGeometry>
                </mxCell>
                <mxCell id="b3LFn2ZK_6WmYbGhhiYw-26" value="Web Parser and Façade" style="rounded=0;whiteSpace=wrap;html=1;fontSize=14;" vertex="1" parent="b3LFn2ZK_6WmYbGhhiYw-2">
                    <mxGeometry x="624" y="277.5" width="120" height="60" as="geometry"/>
                </mxCell>
                <mxCell id="b3LFn2ZK_6WmYbGhhiYw-27" value="" style="shape=image;verticalLabelPosition=bottom;labelBackgroundColor=default;verticalAlign=top;aspect=fixed;imageAspect=0;image=https://upload.wikimedia.org/wikipedia/commons/thumb/c/c3/Python-logo-notext.svg/1200px-Python-logo-notext.svg.png;fontSize=14;" vertex="1" parent="b3LFn2ZK_6WmYbGhhiYw-2">
                    <mxGeometry x="719" y="259.59000000000003" width="35" height="38.32" as="geometry"/>
                </mxCell>
                <mxCell id="b3LFn2ZK_6WmYbGhhiYw-28" value="Source Control + CI/CD (Pipeline)" style="swimlane;whiteSpace=wrap;html=1;fillColor=#6a00ff;fontColor=#ffffff;strokeColor=#3700CC;collapsible=0;fontSize=14;" vertex="1" parent="b3LFn2ZK_6WmYbGhhiYw-1">
                    <mxGeometry x="995" y="418.75" width="414" height="229" as="geometry"/>
                </mxCell>
                <mxCell id="b3LFn2ZK_6WmYbGhhiYw-29" value="GitHub Code Repository" style="shape=image;verticalLabelPosition=bottom;labelBackgroundColor=default;verticalAlign=top;aspect=fixed;imageAspect=0;image=https://thurrott.s3.amazonaws.com/wp-content/uploads/sites/2/2023/01/GitHub.jpeg;fontSize=14;" vertex="1" parent="b3LFn2ZK_6WmYbGhhiYw-28">
                    <mxGeometry x="206" y="60" width="188.12" height="106" as="geometry"/>
                </mxCell>
                <mxCell id="b3LFn2ZK_6WmYbGhhiYw-30" style="edgeStyle=none;html=1;startArrow=classic;startFill=1;endArrow=none;endFill=0;fontSize=14;" edge="1" parent="b3LFn2ZK_6WmYbGhhiYw-28" source="b3LFn2ZK_6WmYbGhhiYw-32" target="b3LFn2ZK_6WmYbGhhiYw-29">
                    <mxGeometry relative="1" as="geometry"/>
                </mxCell>
                <mxCell id="b3LFn2ZK_6WmYbGhhiYw-31" value="Triggers" style="edgeLabel;html=1;align=center;verticalAlign=middle;resizable=0;points=[];fontSize=14;" vertex="1" connectable="0" parent="b3LFn2ZK_6WmYbGhhiYw-30">
                    <mxGeometry x="0.4763" relative="1" as="geometry">
                        <mxPoint x="-18" y="12" as="offset"/>
                    </mxGeometry>
                </mxCell>
                <mxCell id="b3LFn2ZK_6WmYbGhhiYw-32" value="GitHub Actions" style="shape=image;verticalLabelPosition=bottom;labelBackgroundColor=default;verticalAlign=top;aspect=fixed;imageAspect=0;image=https://raw.githubusercontent.com/github/explore/2c7e603b797535e5ad8b4beb575ab3b7354666e1/topics/actions/actions.png;fontSize=14;" vertex="1" parent="b3LFn2ZK_6WmYbGhhiYw-28">
                    <mxGeometry x="33" y="70" width="89" height="89" as="geometry"/>
                </mxCell>
                <mxCell id="b3LFn2ZK_6WmYbGhhiYw-33" value="Developers" style="shape=umlActor;verticalLabelPosition=bottom;verticalAlign=top;html=1;outlineConnect=0;fontSize=14;" vertex="1" parent="b3LFn2ZK_6WmYbGhhiYw-1">
                    <mxGeometry x="1497" y="435.75" width="62" height="109" as="geometry"/>
                </mxCell>
                <mxCell id="b3LFn2ZK_6WmYbGhhiYw-34" style="edgeStyle=none;html=1;startArrow=classic;startFill=1;endArrow=none;endFill=0;fontSize=14;" edge="1" parent="b3LFn2ZK_6WmYbGhhiYw-1" source="b3LFn2ZK_6WmYbGhhiYw-29" target="b3LFn2ZK_6WmYbGhhiYw-33">
                    <mxGeometry relative="1" as="geometry"/>
                </mxCell>
                <mxCell id="b3LFn2ZK_6WmYbGhhiYw-35" value="Update" style="edgeLabel;html=1;align=center;verticalAlign=middle;resizable=0;points=[];fontSize=14;" vertex="1" connectable="0" parent="b3LFn2ZK_6WmYbGhhiYw-34">
                    <mxGeometry x="0.4402" y="3" relative="1" as="geometry">
                        <mxPoint x="-19" y="-9" as="offset"/>
                    </mxGeometry>
                </mxCell>
                <mxCell id="b3LFn2ZK_6WmYbGhhiYw-36" value="Client (Web Browser)" style="verticalLabelPosition=bottom;html=1;verticalAlign=top;align=center;strokeColor=none;fillColor=#00BEF2;shape=mxgraph.azure.laptop;pointerEvents=1;fontSize=14;" vertex="1" parent="b3LFn2ZK_6WmYbGhhiYw-1">
                    <mxGeometry x="255" y="936" width="154" height="120" as="geometry"/>
                </mxCell>
                <mxCell id="b3LFn2ZK_6WmYbGhhiYw-37" style="edgeStyle=none;html=1;startArrow=none;startFill=0;endArrow=classic;endFill=1;fontSize=14;" edge="1" parent="b3LFn2ZK_6WmYbGhhiYw-1" source="b3LFn2ZK_6WmYbGhhiYw-39" target="b3LFn2ZK_6WmYbGhhiYw-36">
                    <mxGeometry relative="1" as="geometry"/>
                </mxCell>
                <mxCell id="b3LFn2ZK_6WmYbGhhiYw-38" value="Uses" style="edgeLabel;html=1;align=center;verticalAlign=middle;resizable=0;points=[];fontSize=14;" vertex="1" connectable="0" parent="b3LFn2ZK_6WmYbGhhiYw-37">
                    <mxGeometry x="-0.3316" y="-4" relative="1" as="geometry">
                        <mxPoint x="23" y="-14" as="offset"/>
                    </mxGeometry>
                </mxCell>
                <mxCell id="b3LFn2ZK_6WmYbGhhiYw-39" value="User" style="shape=umlActor;verticalLabelPosition=bottom;verticalAlign=top;html=1;outlineConnect=0;fontSize=14;" vertex="1" parent="b3LFn2ZK_6WmYbGhhiYw-1">
                    <mxGeometry x="-9" y="939" width="62" height="109" as="geometry"/>
                </mxCell>
                <mxCell id="b3LFn2ZK_6WmYbGhhiYw-40" style="edgeStyle=none;html=1;exitX=0;exitY=0.5;exitDx=0;exitDy=0;startArrow=none;startFill=0;endArrow=classic;endFill=1;fontSize=14;" edge="1" parent="b3LFn2ZK_6WmYbGhhiYw-1" source="b3LFn2ZK_6WmYbGhhiYw-32" target="b3LFn2ZK_6WmYbGhhiYw-2">
                    <mxGeometry relative="1" as="geometry"/>
                </mxCell>
                <mxCell id="b3LFn2ZK_6WmYbGhhiYw-41" value="Deploys" style="edgeLabel;html=1;align=center;verticalAlign=middle;resizable=0;points=[];fontSize=14;" vertex="1" connectable="0" parent="b3LFn2ZK_6WmYbGhhiYw-40">
                    <mxGeometry x="-0.3181" y="2" relative="1" as="geometry">
                        <mxPoint x="-34" y="-17" as="offset"/>
                    </mxGeometry>
                </mxCell>
                <mxCell id="b3LFn2ZK_6WmYbGhhiYw-42" style="edgeStyle=none;html=1;exitX=0.5;exitY=1;exitDx=0;exitDy=0;startArrow=classic;startFill=1;endArrow=classic;endFill=1;fontSize=14;" edge="1" parent="b3LFn2ZK_6WmYbGhhiYw-1" source="b3LFn2ZK_6WmYbGhhiYw-15" target="b3LFn2ZK_6WmYbGhhiYw-36">
                    <mxGeometry relative="1" as="geometry"/>
                </mxCell>
                <mxCell id="b3LFn2ZK_6WmYbGhhiYw-43" style="edgeStyle=orthogonalEdgeStyle;html=1;fontSize=14;" edge="1" parent="b3LFn2ZK_6WmYbGhhiYw-1" target="b3LFn2ZK_6WmYbGhhiYw-39">
                    <mxGeometry relative="1" as="geometry">
                        <mxPoint x="85" y="1200" as="targetPoint"/>
                        <Array as="points">
                            <mxPoint x="583" y="1148"/>
                            <mxPoint x="48" y="1148"/>
                        </Array>
                        <mxPoint x="583.333333333333" y="917.8000000000002" as="sourcePoint"/>
                    </mxGeometry>
                </mxCell>
                <mxCell id="b3LFn2ZK_6WmYbGhhiYw-44" value="Notifies" style="edgeLabel;html=1;align=center;verticalAlign=middle;resizable=0;points=[];fontSize=14;" vertex="1" connectable="0" parent="b3LFn2ZK_6WmYbGhhiYw-43">
                    <mxGeometry x="0.4183" y="1" relative="1" as="geometry">
                        <mxPoint x="104" y="13" as="offset"/>
                    </mxGeometry>
                </mxCell>
                <mxCell id="65iL0lcBjAlxkUWGxE7m-3" value="Email Provilder" style="edgeLabel;html=1;align=center;verticalAlign=middle;resizable=0;points=[];" vertex="1" connectable="0" parent="b3LFn2ZK_6WmYbGhhiYw-43">
                    <mxGeometry x="-0.8008" y="1" relative="1" as="geometry">
                        <mxPoint as="offset"/>
                    </mxGeometry>
                </mxCell>
                <mxCell id="b3LFn2ZK_6WmYbGhhiYw-46" style="edgeStyle=orthogonalEdgeStyle;html=1;exitX=0.5;exitY=1;exitDx=0;exitDy=0;startArrow=none;startFill=0;endArrow=classic;endFill=1;fontSize=14;" edge="1" parent="b3LFn2ZK_6WmYbGhhiYw-1" source="b3LFn2ZK_6WmYbGhhiYw-22">
                    <mxGeometry relative="1" as="geometry">
                        <mxPoint x="583.333333333333" y="871" as="targetPoint"/>
                    </mxGeometry>
                </mxCell>
                <mxCell id="b3LFn2ZK_6WmYbGhhiYw-47" value="Send" style="edgeLabel;html=1;align=center;verticalAlign=middle;resizable=0;points=[];fontSize=14;" vertex="1" connectable="0" parent="b3LFn2ZK_6WmYbGhhiYw-46">
                    <mxGeometry x="-0.3094" y="-3" relative="1" as="geometry">
                        <mxPoint x="3" y="20" as="offset"/>
                    </mxGeometry>
                </mxCell>
                <mxCell id="b3LFn2ZK_6WmYbGhhiYw-48" value="Target Website" style="shape=image;verticalLabelPosition=bottom;labelBackgroundColor=default;verticalAlign=top;aspect=fixed;imageAspect=0;image=data:image/png,iVBORw0KGgoAAAANSUhEUgAAAOUAAAAoCAYAAAABvz18AAAAAXNSR0IArs4c6QAAAARnQU1BAACxjwv8YQUAAAAJcEhZcwAADsMAAA7DAcdvqGQAACMfSURBVHhe7V1pdF3Vdd56mmzJkmzZliV5HsHzgA2EGcKwGpMGQpuWtAklTVe7Wrq6mqn9kSYQ8iMJWclKV9dqaNNCQwk0aSAJkFAMNJgmGBvb2PKE8SQPkq3Blm0N1vCe+n17n33f1bUmG0Ow48/cd849Z599pr3PPtMVOb2AXMRFXMT7BqngXsRFXMT7BDGlzIj0pvGIdGXgDzBDyji+8AGNA+9K6a7CfNlfPEwHN7wZQpghCh0YIY8sZT9pydOfgIsTgd882AfeD5mYbDne7T4632TgtOkrX3NycszFv0wOwhCei4fqSJeKkEZcbm+OpHN6EZZlkYGeq6Z7ENKb4iCUYTlUTuN4RmZa0/bgJw+P8WMZe1FW4+OdzbcevOWpj6GopNbptwF9+i/mvhfoL6+hwt7L8p0viJRSFU4Fn2+GSKDxb1/bCWlPd0lvRskj5KRyZHpRmYzMy8cbuGgDm5qkoUlUXFPEoKzKNSW/rNsnbT1dcmP1TCnKM1UfEvGswdY4AQjn4JFiSC+UFf9ycmj18yw8Ua8LFUkB9/f3k+DHy/JulKu/Or+f6j8cREqpAu7C68IPP8N/sX+nPLJzPV7zQoXTkkrlQUHhV3XOyLTSMbJy0hy5oXoa3hAfbKorDOEK9OiujfL8vt2SSWVkasloeWjFrUMqjSkgfwm3gVk1J05XPlpWpvIB4bcDoUulublZOjo6tM8mTZr0GxNOzzee/3PPPafuypUr1T0XePjhh+WKK66QJUuWhJBs3ucT+kxfKdw+1cuKvMjHXvqhpDIQbtUFkMM6WmXhxzuNYS/CUrBS80aXy+eXXicj+e6KSQSFYbpPvfJTWEnkAOXOyU3J1y+/RaYWlyjZwA2Ykeb2ffLUhr/UtzQsoVr2XuSBJAV5RVI9eqnMr/qIVJcu0jC3/mn4h2mLLwjs3r1bXn31VTlx4kQklIWFhTJ37lxZsWKFjBw5MlCeO3g+joaGBqmrq+ujIHE89dRT6t55552D9PmZ4Tvf+Y5ceeWVqphxJMv2fkdkQEwJM6HwXPWZDXRL1w3KNBbpVCIYOCgvIxGdk4L850sqjQAo5bZjLfLQxtVBIW1zR7mDB/21bSeltacT78iDD5ivazqg+Q7ecCnp6GlFcTIyu/JmuXzKJ+WyyZ+Qy6Z+QpZN+bjMqbhZmlrfkp/VfEF+uftboId9RGdQNVV5f0uwY8cOtUKdnZ2qEB/+8Ifl1ltvlfHjx8vGjRvlpz/9qXR1dSkthTXuvhOw7+J8Xn75ZVm9erUOEI5kPkP3+ZlhIF7nMo/3ApFS6tQPr95wXAtqVfBDC5gLi5ibQny6R+aOHS/zx1bAKo6TBeUVaO1uEIFQN2JEtrUc1TUjmKmiazZgyzyogJgEw8B2o7HMfq1tOKRUpsCDCwnt76yKW2XZ5Ltl6RQq5B/JZVDQD0z/c/nY8v+US6Gwb9e/IBtq/xP8ocLM4/zqk7MC2+zgwYPywgsvqALee++9ct1118mMGTPk0ksvlY9+9KNy2223qQV79tlnNY0L67kQWubvfOifPn26lqOiAvIRwuLx9NM914jncb4iUkoKLpWCleIazJTRoljBNKejIMjAun156fXyJUxR7192k/zDsuvlkQ/epWtDI+5WmucO7sSLKZ0qG/nj2dp8BCs9TnXzQEtl7Zbaky3S2Q3FHgwoi5WHlo/pfH1L2wlA+dgdN8z6nEwbf7XU1P9EutIdIY2r+4ULtsXatWvVf/vtt0tBQYH646BycnpXUlISCe25Fl7yY1kuv/xyufvuuzUvIq4s3m/vBpzvu5nHu42sUgL+EgVaO2oFU+F8MpWTr8qlgEvakak8+crSGyH7aAQqLxZxB46fkLZeWE4oEGmoFh2ZHljRJiSDskJbUr0IpYUFxeaWxoiO01qdNsMfKZTmyWk1Gpth8bKpT4cSTUfr2Ymp7uGWmkBnFA7jaFad9H1cItQ1yj/EhZIE+Fv2/FVDlJZHMgYKhodbGH7dH4UBms6n+wDfNczK6fTZFHQDvYaLHDhwQNeNgykdleWWW26JlKQ/4T0bYY7zi7tJXh7eHwYq89lisLzOFlH/BPj7+uMNcv/6l+Wft62TjmBgsvWwviKiMDrqTXJMSusgYAV1oweggnJqyAzIklPUkfn5mNJWIg/QYRHHNei+48d0k4WZ02JtaW7Q9FxPUoFJQx58NjQeUpd0XKVG8EoMCTLT7GVs0QxV3ab2t0OcN4oJsVpPHpdw1Qx6jQnlpB+VUz+r2xuOdBgTqm+gtTZqDffHaO2MlDy4COD6nPwtDL+gYRk0jANA8DMHpQF4/ks6nrdaDPygUS6IsvwDPeg4dU1heVFaWsqQSCDjghkJRIC/J4XX3weiHwpxuiTvJPqjpTucvEgz3DI54vRnk54bodr+AHua7c8LEf+08dey9Viz/G/9XvnxoZ3Kl/WIJCTkk/H2gEO56A/ap8MGLSGzwVSRwspMjYGtHHlUYpYPE9eMWRudwIYCUPEIbYhULgSyV/IzmHaCz5ZjDdYpKtThrBHxuibsv+ynA2m10RRM59Wjy4ZxoTdl1M0oFsWtpoM8tBzgR8IEtDPxT9WUtH3Kx7DgxRqbykUeqlQahl9VTCsV25J+lps0PNsl9EJGKK/lE8qu2ZmSK/DO+IkTJ+orN3jicKFzIYkj/u50jji91je8J+kIj3d/Mh9Hf2mTtE4zUF5EnCae3v2DpUvSx98HR0ZWNx2Sx2u3yepmk2PvU0pPO+TdNj8hTd1dypd9ycG3t7NNelpbMAELfaN0LlsqFX2g/Tw8gBQKZ8Lgo3YQNPwyc924geLmMxBKZ6AQWgNQ8cjHCowwTF97qBdorIaOdjmCwocUWmDe1jlTkDfT65CAQcKE3MuZlvrjW2TD/sflFzV/J+v3f18OntwMOlg2kkFhtEHA47U935WdDS/yDWBotqmYx9GOvfLSjgfxYkpFMA99wvtre/5NDjW/bi+AccAv4nc2vCBrdv+L/M/2+2XDgcektbMR5eAcIYyuQXFZ/P3N/yfrD3wfdE/IutpHZOPBJ+XN2u/LPoQzL/JlmcrLy2XPnj1M3Udw424S3K3lLqnHJ9Nxp/bnP/+5tLa26jvDnYYun7feektef93q6fHcUCLfODZt2qR0fE6ePKlHNlwHe9ibb77Zh7+XgbSM464y6Q4dMqVIgukYt27dOqVbs2aN8mdZCOdHeNndPxT2of5rmuqk7lS7uvtaedzEZZ1IATrgr+avkOmlo+XKcZPkw5PnIkVGN0t7u9qk+3CtZI4eke6DuzHYYmnjxYBrM6G+MDk5A6jwIpluq0BwdNTGe5QRCNI5YAvl5G0fBRwqXGOHj+JU4l5UotyUE43FdeYbR6yxzUJa4UxZNHgImNrxl+k4JHDmaVcArZq/3P1teabmM7oJ1J3KyJa6n8izNZ+1IxTPI9SvEUq3+eAzGkSuxt3ATtx5eJXsa1oth09ssjiks5yMsivdBv5PZ6fQVDLEMfy/N94nr+z8luw7+mvpTp+UtRgcnlz3SdnZ+IKm19KiPGwbtu+W+qcxkPxA1tf+u7x58AfyBhRzPRR51favyg/X/UlUNm7iUNBXrVo1oAA6/J30FHg/JokrBV1Oi3ft2iXbtm3TMCLOm/7169frmaSnYxgHB/KNw5WPT0tLi+b92muv9Qkn4vw5aDz66KPR8Qppnn76aT3nZJmT9aJSOk8qJBXzySefVHoqN8E0zMPzied3Joinu27CJPna5TfLZxZdKWNHjEAm6EUM8umuU4HC0IuZjOkQX4K89K2C5N4PBP+A+NHebVYATl/h/P6M+caIloWjO8I6etLyrzvWKQ2qDEOZkntnLZZ8uCR+pa5WNnFNqTY+R6aVlsmKCRN1nZkiA4QXwrpeVTlF8yKZcopV/GTnYViYVTJnwq1SMmJCCHWQzuxMc/te2V73nCyceIeMLpqqZV2z92HZUf+MfGDmX8rNc++XSytulsUT/0BG5JfIpgNPSnd3h0wqX25sQN92qlHebn5RFk28S3JT+QimYCOa01HQrKt9VFq7WqQ4f6xeWtBS4od0LMWhYxtkZ/NLsnTKJ6Ws0MuaI09v+oy0ddbJhxZ8Va6c/mdal0UTf0/ae47KOijnuOKZKHN1RM+22XnkRa3vH6x4TJbzfJbHQJPvkarRC2TUyAlSWXKJ0tJSUtC3b9+u7syZM40L2zPWji6U7id9ZWWljB49OqJ1mpqaGrU09HMTKYnu7m69qMCd3cmTJ0fpqBx84gf5y5cv140mDh719fW6/uXRDWn4MD4OKuHzzz+v9bjjjjv0iGfp0qV6+WHr1q1SVFQkVVVVgRp9DAUk77vuukv5eV5lZWU6qOzcuVPmzZsneXl5fdpgOBhdkC/pNAfnXplfUi6LeRSob/iFEbI5jt0F1w1MjYHpysuVzIlj8AP5hZI3ZrzG8HxftyvwTxEripmQYaAnrRNCPYhnllkTnJG2TI88sP5lVcicXNuYmDKqRDd/mAXN/PZjTUrLxiDd5RUTZV5ZBQReuehxy9qmg+rXkd8LHPIbGsabzcTpaUE+Omz0Ek1/oqterdZlU/5EFlbdqZaY5SL/hVUfgaDfA+v5IznRWa98iGoIPG8LNbXy8BuF1MGH5enVo5bmk5yKYDrcts0a0ae+ahExYh/fgLbKtdtF4JnJSaslPNb2ltwy90tSWboYaTh3T0lBbrHcMOszyHOJrNnzPYTZcVFoGuRjPvu1S4xs/+qyJbKg8o4oT4I7q1QeKhotJsF20XYPiAsjr98RjY2NGu50TsMdXYbt379f3z2eLmkYTwx0jc/pHR7vtMn4OKjs5MureL6jzKMeKuZ9990X3RZyHtzoin+F4nlxwODNIVpKXqAgkuUcGim5tmKy/PG0+XJdxRSVEvY4Zcgvp7CPbWYHRdSH3kIpmHKJ5FdOlYLq6ZqG4K/3J2UnjmxvDoECZMBd1TTmwF+BAj644RV58I1X5YENr8qnX35KdnE0wHSVN3RYYd6D9cbi+1asJ6MOAB0Vcj5GjeJcO0/ryUXBIIxbjzVqxbSYbDcX9qEA3rRiq3d9G9PKX8mC6jsg7HadrPboGnUXwHKSs3aINh4eCLSF50Z0bEwqDZVuf5OFEbZbmyuHWrbo+9hRc6TuWI3GaClZbrJGWepPbJWqsoVhqgIFg4Lubf61pqmEMhk3RIJe64pyLIaCnTx1WJo7sC6MOiqjU233k47F1jZhctTZ89QguEnFZH1dCKM+iIGC72tRpyM4PeT9WV4CYDinsnTJw+l8fUce8bTuj4fF807ySYLWmdaels3RH3/C/VTIeLjnR5eXGKicbJOzBXmzJ9jehPZB8NveBRd1FsA4W8rggcz0FhbDh77TOvsgaf2alPC+b4OARxupDMw+sueNnc1Qns0tDbK9uRFLV5hsZOTsFpZNkBuqpoWNmowq2omwI0XrUQxrOn/MWI2bP8ZufPBsMw1BXAdryUoPVjBaHG7ScINkQy1cWMbX9n5Pnnjjk/J2/Yt6DY/TRrUg4NXVfRIlzKhFijhb26lr4ZyKtWsaz7sKylN3chPC7F3VAf7Dx99E3TKYQn4cYRmpO74lSkMl7M60w8K+Dctnd3CtYxCO9WNBbpGmMW5WCBtdMbvJQzngdnafAIVx1M0E6zvA6uN5WXIrrwuju1RMKhOFML62iwutgzu3tJS+rnRQCQlOAwlXwDgPhrm1jSOugI54uv7i4/CyjBo1St3hIFk3f3eX02Uq+pCIFS1ZTra1PxHAnurIMFdYQ6AEC/Yx36iQ9FnfM4677n2RfB8YXE8CrKAefWBU4u4SLRwvo+dAmHl1buGYcvnskmvC3JopUqponKYyHQtNRTShS8klnJuTN3hwc2b70aZYobIWiH77Tanibdj/mKyvfVzWHnxM1sK/s+F/pLx4lty+6Jty/czPBkFHGrjaDkPAJr42Rfe8OD2kcpEP17daFvjroJTVZYuR32ztCm72KJgf6rev+VcaTmtrnRpqxEFCYa7+atmYL7fIOW0lC55zsgw28vv58HDhgsS1FS3EK6+8ohsmjqSg+XGK71I63DJyTcd1mSulg9NBKrOnP59hPR6APvT3xp4uea65Vo9DuEw7bTDhawhinHcV/daDAPj1Zjqlfdd66d6zSY9GKE/KS/WpL8/hd7cfcXD6BEa8B8vD/xxoGTd7uB1837wPyBeXXS9FeVQwzVYLRUVzpabgzh0zLsr4qvGTdFrs2HPyqFZeESssFYKbHpxS/s7ib8ifXrNKPnXNL+Qvrl6F53m554qn5La590tV6Vyz0Dm8VQPRhpcKPxTQNO4BUDoMIJWYflK56o5v1joTXE8ebd0rU8ddJSUjKmTUiHFS17JZ4/SiAVB3gtPbNBR3gaUDa+9kXR9yUFOgnmiPNNcfCOdMgRaYrpWBD3yeeJjwsnL9xTuvVEzeiXXF9HiHTz2TSsd33p0lqqurI8vpcPoLQSl1n4H/qcyp5Gj46qP10tHTKw3pbtkB2fTZn4KkfMXDEO9rvtEiUsb5EK0bXpLu3Zuk/e2N0r3zDQ2jtaTMJI/+PM2woJYEwv7lZTfiuV6+gueBFTfKf1z3Ef386rrqaVowE04qb6+c6kmroklOvk5d+aXJ/PJKMDPBLC8slAmYbwsvG6glgWU9jM7XCvedEmS0wXjpwAquH1B7A7E9GA8BtwbOU1cb1weEQREGHcBHMCoVy1EPpXTw6h4VZ1zRbH2vGr1M6nmdL3QES1PfskGnvlZKhKiSGdowRa4/sV0OntgMZd+mCn8ED6fEx9p264zDwUHNL/mfCeIjLxXTLWZcMZOjMxWLxxoOTh9pBTkFJrizSvjGDhHf5DnfYdNKtEskvyZZI2Fg4oh6h+Qhim0ZhYe+plprG5MOT36nHccQna3HVSH1Ygll3LKOkJWAIaCfbYEBwQ2a+aPHw+KNl3ll5TIyHwLtgocMTDFZoF5Z28DPsqCMvbzdAutTVCzTiktJFNEuCOtKgteQtrc0qiKycciVheTj0ztdv1Kpkac2YGgchzYw02s5EpGDgMki9YFyMO2E8oVQIpueUsG5q2pT0/kI6ZHq0gWqpPzWk2g71SDHO4/o1NfAVLbu4zS0qWOHPFvzt/Ls5i/A/Zw8t/nv5bka+r8ga3Y/rCm4ciesvU8/XB4K3k8Ot5hUMCqmH3E42FdUyrjC1dbWKo0fObg15MYPwTRU4gtBIR0cBFXOtG2sz1aUVkpFbr5MThXIpSXlJh+QDTcURKTQlHnA+1vXjfhP+c5YLvn5+foUTrxEw7kOJb84L4JphwU7uohEVrVcNVynWCZ4Du5EsUDcFqaCEZzu0gq0d3fLAxtfkQfXr5YHN/xSL/HaTR8DJ3L8lEsnv2gcvwhPqB1CBTKqiKyJTaW9MbLTAJYJv3hMQbNWcDAoW/DSPyWiWfTKpFJYwmNbreaIOwTrxl1VrR8URqe4qFfdcawVwKD+xJugy0U4lZZJrGzaVWBSUTxHVi58CGvfb8jtC78hKxd9De9fMz9cvpvCa3fF0g8PA9FTMfn1CMEbL3GwDV3pOEUlD54j0nULySMJbpS4NeUNn+PHj19ASmmyFAHNyPpX5BXKNeMmyhXjq6U4x+406wwmgL3kA7/JH+WcieHFK3WBhiaPf/bmxo/rw6MRnyn6rC+O5PuAsIzNehigDMw5WEgyUgVCNEcAVVqEUeEojKwgiisd3T2ytblBalqa5M2jDfrVSGN7u3EArwx4tKV75EDrSatcvKH6QCemytcas0fzi9qLa0oEa3ndig8DxitrnSqxRiU4vezKnMIUc5dMKJkHQqvzqMIqGTWS68pNCMrBenKznluppURdyI8l9UGLu6/VpYuh7Auw/l2sxyN8qkvxlC0KFpaH2yxHQlCGQLYtsmCYg4rFTZv4h8cOVy6uE8mDroeRBx8qLi0o4etJrjUvCKCZWEeqircZlYwyZJJGEhJZuMpm6NVkm7uFpEJybyUXcqC9z70DGgi1tHSVHOgrnyYpw4DebuelW7rIhLZHM2eR6SADXq/T8xr8xxGA9wN5p5V/i4fQ/U1aIS8ErKfVOjysJAuLNeDWo4cj/jqmkGeYJmh6eM2qgYbBPHAnqNh0eZ+Vr4kGGxY8G0DPFMHi8PGttp4E98nly6zj8B87bFr5tYjnurNXDh/bgnXmQotHXayDbToTDQ6hSDoTgOudTtDHh3W3tNm4odBfXZNh48aNUze500pQCalsvp5060kefLjpwxs8THshrScVaCbWkTM1n45mlcN6yNuSsU7D8KwsZGF9B3q46aZ6STdykyz0ZZAD/YJK/fGUsTdXJj0gD7+aO8CPlqmEkZHkm5JzZAnTWMDcUHBUoAZWUvdhkZAuFY9/OkSvGKGw/GsGnpjHKXaTBQ+EeR0rAVY22rAMSqb5cheWtyfITasXVS6sMQk6oNV45EPx98azJgmIvbOdQ81DGJQJYRPGLNRjkEOYotp6crHGskwcK6swVe3qbpd9R/9PD/9p7awDfR0ecuBUX11zOKhEZQEZy04KpQod5xZW3zkT0bRRqphveOBXJCwTr9SZ4GRBq0eldIVzpXRwKsu0pIlb0iSSfIcDTzPctAPRDZXeFctxOr31APtWZZtBIGnsbDMj08O7q57G147oBdBbX3BHHUmQD+lO/eq/pe1f/kqf9pcfD+IOWcQ/WlBNlShC6HGoGQSChJxiUnj0lIJeMM5Lm0DnB2VSBcHDCmom8DOMSmI5mLl+C9NT2z2k9eqUD02ZKV++7Fq5/7Ib9PnycjxhJ5fHKaTtFftA9C1eywNo/gny41qSmyq6plRV9QowD/hQ7j6NroKdxpRxDLhk9FCf4Lin9eALyHvSbRqfX8Cv5MEXYVHDwD+xZKHusNZjakoFZX1YV9Lw4d1X0q3f/wN1s+tJvLD4nK7A4eUAfnxNGqaM2i/kZqOvdS2HHOtYhCA6NwxWljaLuJXltPR0IWM5smG8ucNpLNeYSQGlkpHW/4JBUumYhvdr+VVIfD2ZzJN8GeYuQTdOR17xz8ySaUaMGKFu8kID4XRJMJxX7egm4WmSfwza+WgokpGOfvYIdYL+5s5T8tbJFtnf1iJ7W5qlO/BnnA3iJosKnbFlp7U9236twURm1xvIwvgrb/SnfiVyWp86EGEFRBCdQMiwbiTVDLTkWvao4hQcdfUXqelhGNw1jbVYT3LU4SozT26omqk7tnx899Z3cvmnKXnljvlkUj2SBv/XG7mpgPJohhRTiiCHDVowNEawJtEaMJQ5Dn7PMmX8ck1Xc+jHCDFLSAXwym85+GPlOW3M1RqmDR3yZD0njuY9VdGLBFTQqI0UGSlIFUt58XQ9v2Q6Wxea4noZWfLpY6+So2179TiEdNqGsTJrV9KaItgHSQ52vOCcjo5GyM9KSdjMwD5y5qdNvC9q4VklYJvSz3ufvNHCK3geF4crGaeuSYVzl9bSd299PUl/Ep6nx9F1P8NnzZqlfOJnn/E0nGZTMfu7Fhfn46DfFdLj43DeyfuxDrY1kUzL8B5dcgG5udKZ6ZF2PUc3K8nrkz2tzdLx75+T7n+8F1NVHufZUKk9NSt7yZ7+uNxRV9SfrYbC4/sCRFZs/MKvfzALAkp1IFNaUVVGZwo6jhV67kIpQ+Vfb6rDNDM/jPIpGZWXL9NGlYYFMuB156v6M3pJXYWQfxkvxZ3bIxpulpk2E+XxBqLVcASWBoi2TgsACjjAzZjF1b+rnz/VHP6Zhllcj9TUPy3rD/xAFlTfKSUjuN7iyhdxVCYOJqhnBaeryIOKW122TJOTzn6NVhUR5eR6MioP3i3eOpF/cY/K+9K2B2Tv0de1Lan4/Jxr1Y4H5bE1H7W6EnBZY7WUmKHwiQshhyjChYhKRIXhlTre4OHaz+NobWj9qLA8FuG1uaTwOVwZ4+vJuKDHp7ROe6YgL95D5dkpB5KkYjp48dw/14qD9Pyca+9eDIIBXk5vo3hbxcFwKmYSNBuhSdljBg3KkTH5I6VYP67AmnxEkZTwD4+TvfYN+uIRKOQz35bO//2+dH3zYxrBD+fJZ8RNn5CRd99vz41/TBaIhnxG1aScBW9AtnShDiZqFsFRmCMFRZxTRiqdVhZMdGSBa/TGhhWwxSvPGqlQBDPtUYVjEres6mds4EHhnQuLydtBfntIbwIhnHSsCDd6eAEBYxcCOCXWmASQPq6wylnksqn3yLRxV8uaXQ/rHdlnt3xenlz3aT0bnDL2SsSzwViS8K0oUyl7q6ErW1XZvNDhFk/ebCeuKwmzkgRjwm+Y0pDuhks+D+Wvkhe3f1HL8bNtfy//8dpd+m3msqmfIDXaBC0eqxr3yWgtTfBQNrSFDn4RLC9+TUFF4cfE3/3ud/UbQj6PPPKIftbEOF4kiAt+HKwXlY7xceWL0/sRCV0XfHf7+0JjIDDNBz/4QT1mYRmfeOKJ6A80E4zn36ilVeeAQiUk3eOPP67fUxJ+sSEOayMbRLxcSQwZHhyTBky1MSBeVlYh14yrlHml44ICIzbMgnqa7YyayNTvDumz09j8GUslb7rtMzBEd16JkN5yyiL6npLKwYFb2xIPp3A00FSiV+v3Smc3I1NSMbJIVk6eowqidWDlNUl2ncW3144clL2Yh9uBfy/Wk7NlGjogB0Kl3aX5YURBeuabwU/lyFL5yT7+FTzy7JF8TBdWTkFeLDQtJRS2pW2PzK64TS+Rp1AehTIkKPh4ZSV0NGK8RebmFMjM8deqcnVhbXkq0yZjR82QK2b8hSyb+HuILwz0BBvJmXLu3yuFeWVSVDBGJo9ZGjqcMSwn/uG9uHCsHOvYL0sm/aEU5hdr/rRubBe2EVuHbnHeGLmkaqWUjqjE+hJr2XS3TBt7tVwz+29kWvlV1gdsRc3eytDadURKCiZgrbrI6ob/wpwkVk8IECwAv6pwheJZIq0kLRIF/Nprr8UMjO3Y/xSP4B1XrhcXLVqktEkwjGvB2bNn6/qSsPboa4FOnTqlSjpnzpwQkoXnX1RUJAsXLtQ82/VYTCJ6xvPhEQ7rw3u25MdvIfnJ1k033aTp42hqapIpU6b0KVccbIt0Ot1vmSjEEX1wEGRe/FAidMIKP41UMBUqz1I5W3rXPiO9Xe2S/9ffk5yp8xEPA0U6xkP5lDX9SGfyzFMF9rSFKeMA6AXFyzONg5aIazeRrS2N8s1Nv9LQzy2+WteAxoOpCKaEH0pD5eYbd6oe2vSqNHS0yoyScvn6FbcojY0dmjFYgJijhaeDgP2odof8167NmCKMlHvmLJHrq6aq0GtF8MsdMR1vYDGZvG+5w5sKKguYjWG9ael1lIPfykl6xgU6Jonax6actEzWWaE9GKX8uUg3Ht5Oyj90gudtgxs7KCeKc39UBuYPf19lMTr+IyfnqPx0tuC02byS6MtvcDjtQG6c5myQTMt34mz4DTdtf3n6ezJuMPTXwtavYdAKMqN0Lj8ug9q3cdmxeOavco33bF8aIqWM4EyjomQZWkXAIhJUIlvkvoW3NyrnNP38JhujcZEi4o2u0hMpacYoy/9hkP+PfyK+WrZYLknlC8pCOqsoV6Esu6WJ/8ZLmw0nEBa1ARRTdz0DbSx/tgXLzQvyNj0NeTKhd4Lzifhl82SYDxJR/qEDfZCwdgGYnkCcikIoh/UDXwLPYcL6UQs0KIZLR8RpzzbdYOiP7kzycTANMVC6fnlqe9PjfUR/6E3E6XIDPWn97foS9ar1jtKZPxvD/E7vw9OV8gwwVAXfDfTbaBdxxoi345m0aZL2Yn+ce5zZEJsAO+O97pBkfhSKizgzJBXJ/cm29Pd4eDyd80mmu4h3hneklO814p3v/gtVKN7NOsUVazB42/ZH7+EDxV/E2eMdKeV7rQwuBO53XIhCEa/ruYTz7I93PM/+2jkOp70Q2/43jTNSymRHvpcdMpiQJMt1vuPdrI+3n7sD9WmynfsrE2kutLZ/P+AdbfS812BRk8JyIWGg+p2reif5XOjteX5C5P8BcDBWXS+UezwAAAAASUVORK5CYII=;imageBackground=#191919;imageBorder=none;fontSize=14;" vertex="1" parent="b3LFn2ZK_6WmYbGhhiYw-1">
                    <mxGeometry x="701.0014453125" y="870.9989483642578" width="229" height="40" as="geometry"/>
                </mxCell>
                <mxCell id="b3LFn2ZK_6WmYbGhhiYw-49" style="edgeStyle=orthogonalEdgeStyle;html=1;exitX=0.5;exitY=1;exitDx=0;exitDy=0;fontSize=14;" edge="1" parent="b3LFn2ZK_6WmYbGhhiYw-1" source="b3LFn2ZK_6WmYbGhhiYw-26" target="b3LFn2ZK_6WmYbGhhiYw-48">
                    <mxGeometry relative="1" as="geometry"/>
                </mxCell>
                <mxCell id="b3LFn2ZK_6WmYbGhhiYw-50" value="Calls" style="edgeLabel;html=1;align=center;verticalAlign=middle;resizable=0;points=[];fontSize=14;" vertex="1" connectable="0" parent="b3LFn2ZK_6WmYbGhhiYw-49">
                    <mxGeometry x="-0.3497" y="-1" relative="1" as="geometry">
                        <mxPoint as="offset"/>
                    </mxGeometry>
                </mxCell>
                <mxCell id="65iL0lcBjAlxkUWGxE7m-7" value="" style="shape=image;verticalLabelPosition=bottom;labelBackgroundColor=default;verticalAlign=top;aspect=fixed;imageAspect=0;image=data:image/png,iVBORw0KGgoAAAANSUhEUgAAASwAAACoCAMAAABt9SM9AAABI1BMVEXy8vJgY2jrQzY0qFNDhfXGIiD8vAX29vZSVltXW2Hh4uLy8vO6vLz5+fn49Pn69/KCqvI7gvWSyJ4opUvKy81rbHFIivWGiozg4OGxs7bJyct3e4Df6uIdo0ZaXmMwffPh5/T9ugDFFhXScG/204LDAADU1dfq6uzy+vufoKLrOyvpRDc3if+TlZlwcndiZmpHS1Hq0tHw4+P07d315szhq6vLS0bYkI/40nn7xT704bDMNjT12pfpzMn5ylPGDw/Va2ntV0rz5L3Zg3/rNSTut7HuqKTug3rudHF9gYSzi6jxra3Fz5BXc9DsbWPovBFNpkOsPWPBtimGXZ/wnZWHsT69KTKhRW61uCj2x73rXVDsKRekv/Oz1rtrm/Nuvn9NsWYCMKjNAAAKCklEQVR4nO2cC3fbthWAKdkWAEGwm5ayKKpB63QiKbuSYifZ1jWu203Loj28LcueXrf9/18xPPgCH7L4kOPo3O+c5tiUzMcnXODiAqplAQAAAAAAAAAAAAAAAAAAAAAAAAAAAAAAAAAAAAAAAAAAAAAAAAAAAAAAAA1AqPk5qKD5WR431EIBvby8CgL5c92TCF68fHkS7Lkvil79dCo4+tlVUP8kL37e652d9b75Bapv/PETXH47fXYkmU5fBXUelFr0+PWZcNWTvr55sb+NC11Pj2KmX9Xqu+jJd1KU5qz3cl9t0auboxQ339YIxeOXulXFnOynLBp8b8g6elY5FGnw2jAlxP3keEe3+4G5mh5lUKG4vS/kf5dxtbdNC73KyTq6+aFCKAaXFzlVvbNfWvvYtoJf3eRkHZ2vfh1s2baCN6tuXlbv9T66soKvnuVldbt3v6HbjIqB9XbVLZDVsNNCkiYn2BElsrrnP1zeF4rUCq4vzrvtykKMUd/xPM/xKXtQY+LKyeWKP64yWd3u6nf3jYoyBLutymKWN1svCZaQznpmU/ZQvtBgtB5H4dT3JLnHL5elQ7HcV2DdaletyWL9WQcT3ongHHfmzgPpmmDOycJXP6PBc/FpPXey79kga3MoBtfd826bspA/J6STheO1wyqfq/rFx+rSfKSuhQbyN9zPvmuTLBGKpaNi8Oaue9GiLMoGqTZl6ppZO29cbKgvRtRv9WR1V8WjIvKjEGxJFrJGOJJDCCbqv0geWfR3bYst9aWwisNSWd8X5FmJh4uCUKTpEGxHFvIXYQQSPhrbju/7jj1eR2HJO86ObbGR/mSGG8OQ/Xaab1rdNPlRMXi/Mt6Rd9X7Paoy30H+UN8rHg4spgdt8S/zx0uti4x23bQcLO8Au+o6ZbJOPvnDUa5tdU1bb61kVKSpUbBM1tkf//TpcQVZyF9yPfoNUFoyFYnDWAYjWe98qom8IcYdV48l5bKenP55ulFW9/wiFYqZEMzJOuudvTv47NMqYYgmyhWZ+Pn2w/oLztcPkD0g1HeiPHSDrCenf8mEYkbGRffuTTQqBu+TUbBE1l8PqsliMxVrZF6oBNHJQ7iSxfX4MhtkHR5+nQnFbo67t3JUpGIUzDarjCwRggfVZCEPa1cl6RT1azx5MzbKOjw0QzHvQ8wBRSgG/zwvcGXIendwUFWWSnH45BHNnO+Rdfh1OhQLhHTPRShmRsGcLBWCFWWhgWpY/OHbTzn3yRKh+LebTbLEqHhR1KzSslQIVpWlGhYe1FonUTUKn4p/UydkzPLlwcJsmiHxB77FNlY07pWVDsViJ6Uko+BBZVlhjzXc3hW1+hL5I3NmQ1mgGM68qMNDzJ6rY3w9tjK9IGLOeNJRJY3laNw3bfrxWbeSlYyKdWT1ohCsJovNZdpAKjQs5MqSgJiXIH+EeTR/HOm0g4l0KTpG+NiwxbxJUtPgBI/6qZfZWp60c2+edRgThWIdWXEIVmxZ+tarpLA2UX0cc9Mzb849JLMQnJ6N41Tij+gcmzN1jlMy9XxnqON5K1mCv0/ryXp3cFBHFnJkFIaVkUqy6AB3zGd3kHBlHkvykWT2KaeakcwkXYlkWVVkqVGxqqyzdAhWk6Vuq0oUhrI6nvpDzDnH2gJfsLEyL49FJYtwsid6ugUPw48MJwseNjI8i2zVkqVCsaosIwSryZqp+atXXZZ88OW4Tyl1xnpqSfS55p4IOd8e6XdFjx9WgPDIVmV+L/o9unI9WTIU7yq5Wv3j4LO6snT/jvNJFirClEXWuigojuvJpRoqbD3IIaYeuINt/Vf+XLU6NxwCxaCpT7JgzWQ9OS1O1Is5715nVVWRpe6RZw9Tb1xEPy0rNb2mftQNYS/phdSUk0eBxrwF5qkK9YljNK3aLev05Opfxbl6QbO6vQqayFqrx8wOhiKtJ3meq1YSt6xUsZnNtC2SThZ8optOeHJEZ3Y62pGt2tqssSxVXNjK1fvAshrLWmYP67vNoseBUJYxKISpbWeRLocxFZw4OZRJ2vW1wzhsIkvMmVf3h6IIQVm6aRyGnS1ljdMty/gDPy8wbG7Z/lD3fjS+CGnesoSt+0NxdeurXahNZBV38CIMuUFOFjcrOkgtOBDjPHp5C6cWO8TM0Pdcgd2X1WvVHMNrN5Nl0ftC8e69Ks43klWSOiB3MTHJhmEmNdNLWcP0hDp65HitAzFPTSXl0pGcOvpOe7KssvKVEYJNZZUkpSIXMujL5yIujWVhOy+LrzfJklPD9PyIkDVvUdamUFzdRoNRM1l6ulNWJY3f5uK4AW6QNdogS6T32UVc9XtrsixUFoqyKG+1ICucSOdyhwxRX31Py9ogK542crl8i5PyQ3uy5GJOQSieX1wnyz3NZG1XomEL+VxLvQJaR1ZYj+0QPpNLuI7nzjqkdVlFobh6a6XWXRu2LJUaxrOOkjc5eBkHa72WFTajWbjpCyFmDVoOQ60rU3q/e2PcUzNZdJuyctj8wuXiGrLChoXd9GfCWkwdEoxQlMs8tD1Z2yxYIEfvB9JXrSMrnILOzNzM3YUsGlzFK/ZqLd98tZksi+qlMHPYN9DzEhI+6kZZhoxUyxrmc1Yzw29NltzgEI6KqVEwebGZLN1rLUsXWeMV6/j9Nfos1T0NzSuEHUDbsqwwFI1NDxFNZYkeSVeeSmzp+mc417FqyurkRxEW9mM7kEUD//YuF4LqlaayopIvWRdsDEFIJ0jJinWtPmuR6xfDjnAnsiw5+ynsVprLSm05yqyMiumcXmfgy/hBa8map3s99WLf2OvXuiyKCr8Z11yW+JTDFRc8cePd7yIVQt4I86XSmNQOaqUOOpvDg6SqHFYydiWrhBZkic95GC2+8PnAE3dJ+95gvgync5yntknWy+B1pOO5I6flSK9XkI9TloXoOtmAq6ooBJdswK0nKyylcjwcjUb6Q1i65OOUJQe9Lbd215xIx2uycSnRa7WetR0tybJYf5QrokhVEy+THtUs0QyMs3NiF053Ki3ffzhZclPMnGeeiIzs7NYhvTHkuW0MNkhtjlmbGfzY+FIJc9bxycVH4CDkqde1kszGEPEKyX8d5THJEoMUtWcTjjV8MR/4Bbus+q7tuq5vyKLykGtWp5Ejj7lJzsE8MWSoM49cOeT6shrv6s2ySNfmwxM46pXcdPVRybJ07cT3bNsWQyIr+Y5T0ffbUOnB9O9ywcK2HSvKIKKFntwJir9C99hkbbjVdmhy6kcp67Fy8u8vdiDr6Y+Vvo7y0fDlTmR9vqvb/bCcfJKz1VjW0/2MQsl/sraaynr63711Jbqt0y8MDivKemryvx+P9/h/CoVO/C8NKv795ybH++yqMdTgQ98NAAAAAAAAAAAAAAAAAAAAAAAAAAAAAAAAAAAAAAAAAAAAAAAAAAAAAAAAAAB7yP8BAUhPT44lrTYAAAAASUVORK5CYII=;" vertex="1" parent="b3LFn2ZK_6WmYbGhhiYw-1">
                    <mxGeometry x="517" y="871" width="133" height="74.48" as="geometry"/>
                </mxCell>
            </root>
        </mxGraphModel>
    </diagram>
</mxfile>